<?xml version="1.0" encoding="utf-8"?>
<!-- Generator: Adobe Illustrator 25.0.0, SVG Export Plug-In . SVG Version: 6.00 Build 0)  -->
<svg version="1.1" id="Layer_1" xmlns="http://www.w3.org/2000/svg" xmlns:xlink="http://www.w3.org/1999/xlink" x="0px" y="0px"
	 viewBox="0 0 100 100" style="enable-background:new 0 0 100 100;" xml:space="preserve">
<style type="text/css">
	.st0{fill:#666766;stroke:#666766;}
	.st1{display:none;fill:#666766;}
	.st2{display:none;fill:none;stroke:#666766;stroke-width:2;}
</style>
<g id="like" transform="translate(0.5 0.5)">
	<g id="Group_22" transform="translate(0 0)">
		<g id="Group_21">
			<path id="Path_68" class="st0" d="M98.44,57.39c0-2.41-0.95-4.72-2.65-6.42c1.93-2.11,2.88-4.94,2.61-7.79
				c-0.66-5.35-5.25-9.33-10.63-9.25h-25.2c1.85-5.26,2.95-10.75,3.25-16.31c0-8.85-7.5-16.31-12.23-16.31
				c-2.66,0.04-5.24,0.91-7.39,2.48c-0.48,0.39-0.77,0.98-0.77,1.6v13.83L33.67,44.67l-0.48,0.25v-0.78c0-1.13-0.92-2.05-2.05-2.05
				h0H10.75C5.12,42.1,0.56,46.67,0.56,52.3v32.62c0.01,5.63,4.57,10.19,10.19,10.19h12.24c4.3-0.01,8.13-2.7,9.59-6.74
				c3.37,1.64,7.05,2.55,10.79,2.66h37.43c4.36,0.06,8.19-2.89,9.24-7.12c0.47-2.07,0.21-4.24-0.73-6.14
				c4.5-2.26,6.33-7.72,4.09-12.23C96.49,63.99,98.44,60.84,98.44,57.39z M89.84,62.43c-1.12,0.14-1.92,1.15-1.79,2.28
				c0.06,0.47,0.28,0.91,0.62,1.24c2.04,1.9,2.16,5.09,0.26,7.14c-0.83,0.89-1.96,1.46-3.17,1.59c-1.12,0.14-1.92,1.15-1.79,2.28
				c0.06,0.47,0.28,0.91,0.62,1.24c1.33,1.24,1.9,3.1,1.48,4.87c-0.63,2.37-2.81,3.99-5.26,3.92H43.38
				c-3.86-0.06-7.62-1.27-10.79-3.48c-0.81-0.79-2.1-0.78-2.89,0.02c-0.37,0.38-0.58,0.89-0.59,1.42c-0.01,3.37-2.74,6.11-6.12,6.12
				H10.75c-3.37-0.02-6.09-2.75-6.1-6.12V52.3c0.01-3.37,2.73-6.1,6.1-6.12h18.35v2.05c0,0.71,0.37,1.36,0.97,1.74
				c0.6,0.36,1.35,0.39,1.98,0.09L36.15,48c0.41-0.21,0.74-0.55,0.94-0.97l12.22-26.5c0.12-0.27,0.19-0.56,0.19-0.86V6.5
				c1.25-0.7,2.66-1.08,4.09-1.1c2.23,0,8.16,5.56,8.16,12.23c-0.47,6.03-1.8,11.97-3.94,17.63c-0.4,1.06,0.14,2.24,1.2,2.64
				c0.23,0.08,0.47,0.13,0.71,0.13h28.06c3.28-0.1,6.12,2.29,6.58,5.54c0.22,2.32-0.91,4.56-2.9,5.77c-0.96,0.6-1.25,1.86-0.65,2.82
				c0.19,0.31,0.47,0.56,0.79,0.73c2.5,1.23,3.53,4.26,2.29,6.76c-0.77,1.56-2.29,2.62-4.02,2.79L89.84,62.43z"/>
		</g>
	</g>
	<g id="Group_24" transform="translate(8.37 13.153)">
		<g id="Group_23">
			<path id="Path_69" class="st0" d="M22.77,33.03c-1.13,0-2.05,0.92-2.05,2.05v0v36.7c0,1.13,0.91,2.05,2.04,2.05
				c1.13,0,2.05-0.91,2.05-2.04c0,0,0-0.01,0-0.01V35.06C24.82,33.94,23.9,33.03,22.77,33.03z"/>
		</g>
	</g>
</g>
<path id="Path_41" class="st1" d="M0.99,91.05V42.62c0.02-15,12.17-27.16,27.17-27.17h44.65c15,0.02,27.16,12.17,27.18,27.17v8.35
	c-0.02,15-12.17,27.16-27.17,27.17H28.8L0.99,91.05z M28.17,21.5c-11.66,0.01-21.1,9.46-21.11,21.11v38.95l20.41-9.48h45.36
	c11.66-0.01,21.1-9.46,21.11-21.11v-8.35c-0.02-11.66-9.46-21.1-21.12-21.11L28.17,21.5L28.17,21.5z M30.16,42.16
	c3.18,0,5.76,2.58,5.76,5.76c0,3.18-2.58,5.76-5.76,5.76s-5.76-2.58-5.76-5.76l0,0C24.4,44.74,26.97,42.16,30.16,42.16
	C30.16,42.16,30.16,42.16,30.16,42.16L30.16,42.16z M70.82,42.16c3.18,0,5.76,2.58,5.76,5.76c0,3.18-2.58,5.76-5.76,5.76
	c-3.18,0-5.76-2.58-5.76-5.76l0,0C65.06,44.74,67.64,42.16,70.82,42.16C70.82,42.16,70.82,42.16,70.82,42.16L70.82,42.16z
	 M50.49,42.16c3.18-0.01,5.77,2.56,5.77,5.75c0.01,3.18-2.56,5.77-5.75,5.77c-3.18,0.01-5.77-2.56-5.77-5.75c0,0,0-0.01,0-0.01
	C44.74,44.74,47.31,42.16,50.49,42.16L50.49,42.16z"/>
<path id="Icon_awesome-share" class="st2" d="M96.44,39.16L63.45,10.67c-1.88-1.62-4.73-1.41-6.35,0.48
	c-0.7,0.82-1.09,1.85-1.09,2.93v15.01C25.89,29.43,2.02,35.47,2.02,64C2.62,75.49,8.36,86.1,17.64,92.9
	c1.47,1.12,3.56,0.84,4.68-0.63c0.62-0.82,0.84-1.87,0.58-2.87C14.4,62.22,26.93,55,56,54.59v16.48c0,2.49,2.02,4.5,4.51,4.5
	c1.08,0,2.12-0.39,2.93-1.09l32.99-28.49c1.88-1.62,2.09-4.46,0.47-6.35C96.76,39.47,96.61,39.31,96.44,39.16z"/>
</svg>
