<?xml version="1.0" encoding="utf-8"?>
<!-- Generator: Adobe Illustrator 25.0.0, SVG Export Plug-In . SVG Version: 6.00 Build 0)  -->
<svg version="1.1" id="Layer_1" xmlns="http://www.w3.org/2000/svg" xmlns:xlink="http://www.w3.org/1999/xlink" x="0px" y="0px"
	 viewBox="0 0 100 100" style="enable-background:new 0 0 100 100;" xml:space="preserve">
<style type="text/css">
	.st0{fill:none;stroke:#666766;stroke-width:3;}
</style>
<path id="Icon_awesome-share" class="st0" d="M96.11,38.32L63.28,9.97c-1.88-1.61-4.7-1.4-6.32,0.47c-0.7,0.81-1.08,1.85-1.08,2.92
	V28.3C25.92,28.64,2.16,34.64,2.16,63.04c0.6,11.43,6.31,21.99,15.54,28.75c1.46,1.12,3.55,0.84,4.66-0.62
	c0.62-0.81,0.83-1.86,0.58-2.85c-8.46-27.05,4.01-34.23,32.94-34.65v16.4c0,2.47,2.01,4.48,4.49,4.47c1.07,0,2.1-0.39,2.92-1.08
	L96.11,45.1c1.87-1.61,2.08-4.44,0.47-6.31C96.43,38.62,96.28,38.47,96.11,38.32z"/>
</svg>
