<svg xmlns="http://www.w3.org/2000/svg" width="1934" height="1090.786" viewBox="0 0 1934 1090.786">
  <g id="Group_281" data-name="Group 281" transform="translate(-5566 -7032)">
    <rect id="Rectangle_226" data-name="Rectangle 226" width="1920" height="1080" transform="translate(5580 7032)" fill="#006db2" opacity="0.5"/>
    <path id="Path_1664" data-name="Path 1664" d="M232.574,0H965.5V1090.786H0Z" transform="translate(6534.5 7032)" fill="#008ae2" opacity="0.18"/>
    <g id="Group_279" data-name="Group 279" transform="translate(5580 7032)">
      <g id="Group_43" data-name="Group 43" transform="translate(6 32)">
        <g id="Group_42" data-name="Group 42" transform="translate(0)">
          <g id="Ellipse_16" data-name="Ellipse 16" transform="translate(245 94)" fill="#fff" stroke="#fff" stroke-width="8">
            <ellipse cx="28" cy="27" rx="28" ry="27" stroke="none"/>
            <ellipse cx="28" cy="27" rx="24" ry="23" fill="none"/>
          </g>
          <g id="Ellipse_26" data-name="Ellipse 26" transform="translate(1572 94)" fill="#fff" stroke="#fff" stroke-width="8">
            <ellipse cx="28" cy="27" rx="28" ry="27" stroke="none"/>
            <ellipse cx="28" cy="27" rx="24" ry="23" fill="none"/>
          </g>
          <g id="Ellipse_20" data-name="Ellipse 20" transform="translate(1116 25)" fill="#fff" stroke="#fff" stroke-width="8">
            <ellipse cx="27" cy="28" rx="27" ry="28" stroke="none"/>
            <ellipse cx="27" cy="28" rx="23" ry="24" fill="none"/>
          </g>
          <g id="Ellipse_17" data-name="Ellipse 17" transform="translate(822 94)" fill="#fff" stroke="#fff" stroke-width="8">
            <circle cx="17" cy="17" r="17" stroke="none"/>
            <circle cx="17" cy="17" r="13" fill="none"/>
          </g>
          <circle id="Ellipse_18" data-name="Ellipse 18" cx="13" cy="13" r="13" transform="translate(584)" fill="#fff"/>
          <circle id="Ellipse_22" data-name="Ellipse 22" cx="8.5" cy="8.5" r="8.5" transform="translate(91 277)" fill="#fff"/>
          <g id="Ellipse_25" data-name="Ellipse 25" transform="translate(1417 277)" fill="#fff" stroke="#fff" stroke-width="8">
            <circle cx="9" cy="9" r="9" stroke="none"/>
            <circle cx="9" cy="9" r="5" fill="none"/>
          </g>
          <g id="Ellipse_23" data-name="Ellipse 23" transform="translate(0 77)" fill="#fff" stroke="#fff" stroke-width="8">
            <circle cx="14.5" cy="14.5" r="14.5" stroke="none"/>
            <circle cx="14.5" cy="14.5" r="10.5" fill="none"/>
          </g>
          <g id="Ellipse_27" data-name="Ellipse 27" transform="translate(1327 77)" fill="#fff" stroke="#fff" stroke-width="8">
            <circle cx="14.5" cy="14.5" r="14.5" stroke="none"/>
            <circle cx="14.5" cy="14.5" r="10.5" fill="none"/>
          </g>
          <circle id="Ellipse_21" data-name="Ellipse 21" cx="12.5" cy="12.5" r="12.5" transform="translate(1013 209)" fill="#fff"/>
          <g id="Ellipse_19" data-name="Ellipse 19" transform="translate(544 277)" fill="#fff" stroke="#fff" stroke-width="8">
            <circle cx="19" cy="19" r="19" stroke="none"/>
            <circle cx="19" cy="19" r="15" fill="none"/>
          </g>
          <g id="Ellipse_24" data-name="Ellipse 24" transform="translate(1870 277)" fill="#fff" stroke="#fff" stroke-width="8">
            <circle cx="19.5" cy="19.5" r="19.5" stroke="none"/>
            <circle cx="19.5" cy="19.5" r="15.5" fill="none"/>
          </g>
        </g>
        <path id="Path_130" data-name="Path 130" d="M2034.545,806.365l85.336,197.73L2296.8,837.585l291.392,179,27.058-289.31L2862.93,837.585l303.88-64.522L3046.09,939.572l318.449-133.208,81.174,197.73,170.672-166.509,295.554,179-547.4-210.218-197.73-33.3-578.62,243.52Z" transform="translate(-2020.134 -718.429)" fill="none" stroke="#fff" stroke-width="1.5"/>
      </g>
      <g id="Group_250" data-name="Group 250" transform="translate(0 749)">
        <g id="Group_42-2" data-name="Group 42" transform="translate(0)">
          <g id="Ellipse_16-2" data-name="Ellipse 16" transform="translate(245 94)" fill="#fff" stroke="#fff" stroke-width="8">
            <ellipse cx="28" cy="27" rx="28" ry="27" stroke="none"/>
            <ellipse cx="28" cy="27" rx="24" ry="23" fill="none"/>
          </g>
          <g id="Ellipse_26-2" data-name="Ellipse 26" transform="translate(1572 94)" fill="#fff" stroke="#fff" stroke-width="8">
            <ellipse cx="28" cy="27" rx="28" ry="27" stroke="none"/>
            <ellipse cx="28" cy="27" rx="24" ry="23" fill="none"/>
          </g>
          <g id="Ellipse_20-2" data-name="Ellipse 20" transform="translate(1116 25)" fill="#fff" stroke="#fff" stroke-width="8">
            <ellipse cx="27" cy="28" rx="27" ry="28" stroke="none"/>
            <ellipse cx="27" cy="28" rx="23" ry="24" fill="none"/>
          </g>
          <g id="Ellipse_17-2" data-name="Ellipse 17" transform="translate(822 94)" fill="#fff" stroke="#fff" stroke-width="8">
            <circle cx="17" cy="17" r="17" stroke="none"/>
            <circle cx="17" cy="17" r="13" fill="none"/>
          </g>
          <circle id="Ellipse_18-2" data-name="Ellipse 18" cx="13" cy="13" r="13" transform="translate(584)" fill="#fff"/>
          <circle id="Ellipse_22-2" data-name="Ellipse 22" cx="8.5" cy="8.5" r="8.5" transform="translate(91 277)" fill="#fff"/>
          <g id="Ellipse_25-2" data-name="Ellipse 25" transform="translate(1417 277)" fill="#fff" stroke="#fff" stroke-width="8">
            <circle cx="9" cy="9" r="9" stroke="none"/>
            <circle cx="9" cy="9" r="5" fill="none"/>
          </g>
          <g id="Ellipse_23-2" data-name="Ellipse 23" transform="translate(0 77)" fill="#fff" stroke="#fff" stroke-width="8">
            <circle cx="14.5" cy="14.5" r="14.5" stroke="none"/>
            <circle cx="14.5" cy="14.5" r="10.5" fill="none"/>
          </g>
          <g id="Ellipse_27-2" data-name="Ellipse 27" transform="translate(1327 77)" fill="#fff" stroke="#fff" stroke-width="8">
            <circle cx="14.5" cy="14.5" r="14.5" stroke="none"/>
            <circle cx="14.5" cy="14.5" r="10.5" fill="none"/>
          </g>
          <circle id="Ellipse_21-2" data-name="Ellipse 21" cx="12.5" cy="12.5" r="12.5" transform="translate(1013 209)" fill="#fff"/>
          <g id="Ellipse_19-2" data-name="Ellipse 19" transform="translate(544 277)" fill="#fff" stroke="#fff" stroke-width="8">
            <circle cx="19" cy="19" r="19" stroke="none"/>
            <circle cx="19" cy="19" r="15" fill="none"/>
          </g>
          <g id="Ellipse_24-2" data-name="Ellipse 24" transform="translate(1870 277)" fill="#fff" stroke="#fff" stroke-width="8">
            <circle cx="19.5" cy="19.5" r="19.5" stroke="none"/>
            <circle cx="19.5" cy="19.5" r="15.5" fill="none"/>
          </g>
        </g>
        <path id="Path_130-2" data-name="Path 130" d="M2034.545,806.365l85.336,197.73L2296.8,837.585l291.392,179,27.058-289.31L2862.93,837.585l303.88-64.522L3046.09,939.572l318.449-133.208,81.174,197.73,170.672-166.509,295.554,179-547.4-210.218-197.73-33.3-578.62,243.52Z" transform="translate(-2020.134 -718.429)" fill="none" stroke="#fff" stroke-width="1.5"/>
      </g>
      <g id="Group_249" data-name="Group 249" transform="translate(-14 391)">
        <g id="Group_42-3" data-name="Group 42" transform="translate(0 0)">
          <g id="Ellipse_16-3" data-name="Ellipse 16" transform="translate(1608 168)" fill="#fff" stroke="#fff" stroke-width="8">
            <ellipse cx="28" cy="27" rx="28" ry="27" stroke="none"/>
            <ellipse cx="28" cy="27" rx="24" ry="23" fill="none"/>
          </g>
          <g id="Ellipse_26-3" data-name="Ellipse 26" transform="translate(281 168)" fill="#fff" stroke="#fff" stroke-width="8">
            <ellipse cx="28" cy="27" rx="28" ry="27" stroke="none"/>
            <ellipse cx="28" cy="27" rx="24" ry="23" fill="none"/>
          </g>
          <g id="Ellipse_20-3" data-name="Ellipse 20" transform="translate(739 235)" fill="#fff" stroke="#fff" stroke-width="8">
            <ellipse cx="27" cy="28" rx="27" ry="28" stroke="none"/>
            <ellipse cx="27" cy="28" rx="23" ry="24" fill="none"/>
          </g>
          <g id="Ellipse_17-3" data-name="Ellipse 17" transform="translate(1053 188)" fill="#fff" stroke="#fff" stroke-width="8">
            <circle cx="17" cy="17" r="17" stroke="none"/>
            <circle cx="17" cy="17" r="13" fill="none"/>
          </g>
          <circle id="Ellipse_18-3" data-name="Ellipse 18" cx="13" cy="13" r="13" transform="translate(1299 290)" fill="#fff"/>
          <circle id="Ellipse_22-3" data-name="Ellipse 22" cx="8.5" cy="8.5" r="8.5" transform="translate(1801 22)" fill="#fff"/>
          <g id="Ellipse_25-3" data-name="Ellipse 25" transform="translate(474 21)" fill="#fff" stroke="#fff" stroke-width="8">
            <circle cx="9" cy="9" r="9" stroke="none"/>
            <circle cx="9" cy="9" r="5" fill="none"/>
          </g>
          <g id="Ellipse_23-3" data-name="Ellipse 23" transform="translate(1880 210)" fill="#fff" stroke="#fff" stroke-width="8">
            <circle cx="14.5" cy="14.5" r="14.5" stroke="none"/>
            <circle cx="14.5" cy="14.5" r="10.5" fill="none"/>
          </g>
          <g id="Ellipse_27-3" data-name="Ellipse 27" transform="translate(553 210)" fill="#fff" stroke="#fff" stroke-width="8">
            <circle cx="14.5" cy="14.5" r="14.5" stroke="none"/>
            <circle cx="14.5" cy="14.5" r="10.5" fill="none"/>
          </g>
          <circle id="Ellipse_21-3" data-name="Ellipse 21" cx="12.5" cy="12.5" r="12.5" transform="translate(871 82)" fill="#fff"/>
          <g id="Ellipse_19-3" data-name="Ellipse 19" transform="translate(1327 1)" fill="#fff" stroke="#fff" stroke-width="8">
            <circle cx="19" cy="19" r="19" stroke="none"/>
            <circle cx="19" cy="19" r="15" fill="none"/>
          </g>
          <g id="Ellipse_24-3" data-name="Ellipse 24" transform="translate(0)" fill="#fff" stroke="#fff" stroke-width="8">
            <circle cx="19.5" cy="19.5" r="19.5" stroke="none"/>
            <circle cx="19.5" cy="19.5" r="15.5" fill="none"/>
          </g>
        </g>
        <path id="Path_130-3" data-name="Path 130" d="M3911.939,937.491,3826.6,739.761,3649.687,906.27l-291.392-179-27.058,289.31L3083.555,906.27l-303.88,64.522,120.719-166.509L2581.945,937.491l-81.174-197.73L2330.1,906.27l-295.554-179,547.4,210.218,197.73,33.3,578.62-243.52Z" transform="translate(-2017.35 -709.427)" fill="none" stroke="#fff" stroke-width="1.5"/>
      </g>
    </g>
    <g id="Group_280" data-name="Group 280" transform="translate(5580 7032)" opacity="0.75">
      <rect id="Rectangle_1" data-name="Rectangle 1" width="1920" height="1080" fill="#0275b1"/>
    </g>
  </g>
</svg>
