<svg xmlns="http://www.w3.org/2000/svg" width="1920" height="1080" viewBox="0 0 1920 1080">
  <g id="Group_284" data-name="Group 284" transform="translate(-7146 -6699)">
    <rect id="Rectangle_226" data-name="Rectangle 226" width="1920" height="1080" transform="translate(7146 6699)" fill="#006db2" opacity="0.5"/>
    <path id="Path_1664" data-name="Path 1664" d="M232.574,0H965.5V1079.786H0Z" transform="translate(7623 6699)" fill="#008ae2" opacity="0.18"/>
    <g id="Group_279" data-name="Group 279" transform="translate(7164 6695.284)">
      <g id="Group_43" data-name="Group 43" transform="translate(5.834 32)">
        <g id="Group_42" data-name="Group 42" transform="translate(0)">
          <g id="Ellipse_16" data-name="Ellipse 16" transform="translate(243.166 93.716)" fill="#fff" stroke="#fff" stroke-width="8">
            <ellipse cx="27.5" cy="26.5" rx="27.5" ry="26.5" stroke="none"/>
            <ellipse cx="27.5" cy="26.5" rx="23.5" ry="22.5" fill="none"/>
          </g>
          <g id="Ellipse_26" data-name="Ellipse 26" transform="translate(1559.165 93.716)" fill="#fff" stroke="#fff" stroke-width="8">
            <ellipse cx="27.5" cy="26.5" rx="27.5" ry="26.5" stroke="none"/>
            <ellipse cx="27.5" cy="26.5" rx="23.5" ry="22.5" fill="none"/>
          </g>
          <g id="Ellipse_20" data-name="Ellipse 20" transform="translate(1107.165 24.716)" fill="#fff" stroke="#fff" stroke-width="8">
            <ellipse cx="26.5" cy="28" rx="26.5" ry="28" stroke="none"/>
            <ellipse cx="26.5" cy="28" rx="22.5" ry="24" fill="none"/>
          </g>
          <g id="Ellipse_17" data-name="Ellipse 17" transform="translate(815.166 93.716)" fill="#fff" stroke="#fff" stroke-width="8">
            <ellipse cx="17" cy="16.5" rx="17" ry="16.5" stroke="none"/>
            <ellipse cx="17" cy="16.5" rx="13" ry="12.5" fill="none"/>
          </g>
          <circle id="Ellipse_18" data-name="Ellipse 18" cx="13" cy="13" r="13" transform="translate(579.166 -0.284)" fill="#fff"/>
          <circle id="Ellipse_22" data-name="Ellipse 22" cx="8.5" cy="8.5" r="8.5" transform="translate(90.166 274.716)" fill="#fff"/>
          <g id="Ellipse_25" data-name="Ellipse 25" transform="translate(1405.165 274.716)" fill="#fff" stroke="#fff" stroke-width="8">
            <circle cx="9" cy="9" r="9" stroke="none"/>
            <circle cx="9" cy="9" r="5" fill="none"/>
          </g>
          <g id="Ellipse_23" data-name="Ellipse 23" transform="translate(0.166 76.716)" fill="#fff" stroke="#fff" stroke-width="8">
            <ellipse cx="14.5" cy="14" rx="14.5" ry="14" stroke="none"/>
            <ellipse cx="14.5" cy="14" rx="10.5" ry="10" fill="none"/>
          </g>
          <g id="Ellipse_27" data-name="Ellipse 27" transform="translate(1316.165 76.716)" fill="#fff" stroke="#fff" stroke-width="8">
            <ellipse cx="14.5" cy="14" rx="14.5" ry="14" stroke="none"/>
            <ellipse cx="14.5" cy="14" rx="10.5" ry="10" fill="none"/>
          </g>
          <ellipse id="Ellipse_21" data-name="Ellipse 21" cx="12.5" cy="12" rx="12.5" ry="12" transform="translate(1004.166 207.716)" fill="#fff"/>
          <g id="Ellipse_19" data-name="Ellipse 19" transform="translate(539.166 274.716)" fill="#fff" stroke="#fff" stroke-width="8">
            <circle cx="19" cy="19" r="19" stroke="none"/>
            <circle cx="19" cy="19" r="15" fill="none"/>
          </g>
          <g id="Ellipse_24" data-name="Ellipse 24" transform="translate(1854.166 274.716)" fill="#fff" stroke="#fff" stroke-width="8">
            <circle cx="19.5" cy="19.5" r="19.5" stroke="none"/>
            <circle cx="19.5" cy="19.5" r="15.5" fill="none"/>
          </g>
        </g>
        <path id="Path_130" data-name="Path 130" d="M2034.545,805.709l84.628,196.09L2294.622,836.67,2583.6,1014.183l26.833-286.91,245.628,109.4,301.359-63.987L3037.7,937.811l315.808-132.1,80.5,196.09L3603.264,836.67l293.1,177.513L3353.508,805.709l-196.09-33.026-573.821,241.5Z" transform="translate(-2020.254 -718.502)" fill="none" stroke="#fff" stroke-width="1.5"/>
      </g>
      <g id="Group_250" data-name="Group 250" transform="translate(-0.116 743.053)">
        <g id="Group_42-2" data-name="Group 42" transform="translate(0)">
          <g id="Ellipse_16-2" data-name="Ellipse 16" transform="translate(243.116 93.663)" fill="#fff" stroke="#fff" stroke-width="8">
            <ellipse cx="27.5" cy="26.5" rx="27.5" ry="26.5" stroke="none"/>
            <ellipse cx="27.5" cy="26.5" rx="23.5" ry="22.5" fill="none"/>
          </g>
          <g id="Ellipse_26-2" data-name="Ellipse 26" transform="translate(1559.116 93.663)" fill="#fff" stroke="#fff" stroke-width="8">
            <ellipse cx="27.5" cy="26.5" rx="27.5" ry="26.5" stroke="none"/>
            <ellipse cx="27.5" cy="26.5" rx="23.5" ry="22.5" fill="none"/>
          </g>
          <g id="Ellipse_20-2" data-name="Ellipse 20" transform="translate(1107.116 24.663)" fill="#fff" stroke="#fff" stroke-width="8">
            <ellipse cx="26.5" cy="28" rx="26.5" ry="28" stroke="none"/>
            <ellipse cx="26.5" cy="28" rx="22.5" ry="24" fill="none"/>
          </g>
          <g id="Ellipse_17-2" data-name="Ellipse 17" transform="translate(815.116 93.663)" fill="#fff" stroke="#fff" stroke-width="8">
            <ellipse cx="17" cy="16.5" rx="17" ry="16.5" stroke="none"/>
            <ellipse cx="17" cy="16.5" rx="13" ry="12.5" fill="none"/>
          </g>
          <circle id="Ellipse_18-2" data-name="Ellipse 18" cx="13" cy="13" r="13" transform="translate(579.116 -0.337)" fill="#fff"/>
          <circle id="Ellipse_22-2" data-name="Ellipse 22" cx="8.5" cy="8.5" r="8.5" transform="translate(90.116 274.663)" fill="#fff"/>
          <g id="Ellipse_25-2" data-name="Ellipse 25" transform="translate(1405.116 274.663)" fill="#fff" stroke="#fff" stroke-width="8">
            <circle cx="9" cy="9" r="9" stroke="none"/>
            <circle cx="9" cy="9" r="5" fill="none"/>
          </g>
          <g id="Ellipse_23-2" data-name="Ellipse 23" transform="translate(0.116 76.663)" fill="#fff" stroke="#fff" stroke-width="8">
            <ellipse cx="14.5" cy="14" rx="14.5" ry="14" stroke="none"/>
            <ellipse cx="14.5" cy="14" rx="10.5" ry="10" fill="none"/>
          </g>
          <g id="Ellipse_27-2" data-name="Ellipse 27" transform="translate(1316.116 76.663)" fill="#fff" stroke="#fff" stroke-width="8">
            <ellipse cx="14.5" cy="14" rx="14.5" ry="14" stroke="none"/>
            <ellipse cx="14.5" cy="14" rx="10.5" ry="10" fill="none"/>
          </g>
          <ellipse id="Ellipse_21-2" data-name="Ellipse 21" cx="12.5" cy="12" rx="12.5" ry="12" transform="translate(1004.116 207.663)" fill="#fff"/>
          <g id="Ellipse_19-2" data-name="Ellipse 19" transform="translate(539.116 274.663)" fill="#fff" stroke="#fff" stroke-width="8">
            <circle cx="19" cy="19" r="19" stroke="none"/>
            <circle cx="19" cy="19" r="15" fill="none"/>
          </g>
          <g id="Ellipse_24-2" data-name="Ellipse 24" transform="translate(1854.116 274.663)" fill="#fff" stroke="#fff" stroke-width="8">
            <circle cx="19.5" cy="19.5" r="19.5" stroke="none"/>
            <circle cx="19.5" cy="19.5" r="15.5" fill="none"/>
          </g>
        </g>
        <path id="Path_130-2" data-name="Path 130" d="M2034.545,805.709l84.628,196.09L2294.622,836.67,2583.6,1014.183l26.833-286.91,245.628,109.4,301.359-63.987L3037.7,937.811l315.808-132.1,80.5,196.09L3603.264,836.67l293.1,177.513L3353.508,805.709l-196.09-33.026-573.821,241.5Z" transform="translate(-2020.254 -718.502)" fill="none" stroke="#fff" stroke-width="1.5"/>
      </g>
      <g id="Group_249" data-name="Group 249" transform="translate(-14 388.022)">
        <g id="Group_42-3" data-name="Group 42" transform="translate(0 0)">
          <g id="Ellipse_16-3" data-name="Ellipse 16" transform="translate(1595 166.693)" fill="#fff" stroke="#fff" stroke-width="8">
            <ellipse cx="27.5" cy="26.5" rx="27.5" ry="26.5" stroke="none"/>
            <ellipse cx="27.5" cy="26.5" rx="23.5" ry="22.5" fill="none"/>
          </g>
          <g id="Ellipse_26-3" data-name="Ellipse 26" transform="translate(279 166.693)" fill="#fff" stroke="#fff" stroke-width="8">
            <ellipse cx="27.5" cy="26.5" rx="27.5" ry="26.5" stroke="none"/>
            <ellipse cx="27.5" cy="26.5" rx="23.5" ry="22.5" fill="none"/>
          </g>
          <g id="Ellipse_20-3" data-name="Ellipse 20" transform="translate(733 232.693)" fill="#fff" stroke="#fff" stroke-width="8">
            <ellipse cx="26.5" cy="28" rx="26.5" ry="28" stroke="none"/>
            <ellipse cx="26.5" cy="28" rx="22.5" ry="24" fill="none"/>
          </g>
          <g id="Ellipse_17-3" data-name="Ellipse 17" transform="translate(1044 186.693)" fill="#fff" stroke="#fff" stroke-width="8">
            <ellipse cx="17" cy="16.5" rx="17" ry="16.5" stroke="none"/>
            <ellipse cx="17" cy="16.5" rx="13" ry="12.5" fill="none"/>
          </g>
          <circle id="Ellipse_18-3" data-name="Ellipse 18" cx="13" cy="13" r="13" transform="translate(1288 287.694)" fill="#fff"/>
          <circle id="Ellipse_22-3" data-name="Ellipse 22" cx="8.5" cy="8.5" r="8.5" transform="translate(1785.999 21.693)" fill="#fff"/>
          <g id="Ellipse_25-3" data-name="Ellipse 25" transform="translate(470 20.693)" fill="#fff" stroke="#fff" stroke-width="8">
            <circle cx="9" cy="9" r="9" stroke="none"/>
            <circle cx="9" cy="9" r="5" fill="none"/>
          </g>
          <g id="Ellipse_23-3" data-name="Ellipse 23" transform="translate(1863.999 208.693)" fill="#fff" stroke="#fff" stroke-width="8">
            <ellipse cx="14.5" cy="14" rx="14.5" ry="14" stroke="none"/>
            <ellipse cx="14.5" cy="14" rx="10.5" ry="10" fill="none"/>
          </g>
          <g id="Ellipse_27-3" data-name="Ellipse 27" transform="translate(548 208.693)" fill="#fff" stroke="#fff" stroke-width="8">
            <ellipse cx="14.5" cy="14" rx="14.5" ry="14" stroke="none"/>
            <ellipse cx="14.5" cy="14" rx="10.5" ry="10" fill="none"/>
          </g>
          <ellipse id="Ellipse_21-3" data-name="Ellipse 21" cx="12.5" cy="12" rx="12.5" ry="12" transform="translate(864 81.693)" fill="#fff"/>
          <g id="Ellipse_19-3" data-name="Ellipse 19" transform="translate(1316 0.693)" fill="#fff" stroke="#fff" stroke-width="8">
            <circle cx="19" cy="19" r="19" stroke="none"/>
            <circle cx="19" cy="19" r="15" fill="none"/>
          </g>
          <g id="Ellipse_24-3" data-name="Ellipse 24" transform="translate(0 -0.307)" fill="#fff" stroke="#fff" stroke-width="8">
            <circle cx="19.5" cy="19.5" r="19.5" stroke="none"/>
            <circle cx="19.5" cy="19.5" r="15.5" fill="none"/>
          </g>
        </g>
        <path id="Path_130-3" data-name="Path 130" d="M3896.367,935.747l-84.628-196.09L3636.29,904.786,3347.315,727.273l-26.833,286.91-245.628-109.4-301.359,63.987,119.718-165.128L2577.4,935.747l-80.5-196.09L2327.648,904.786l-293.1-177.513L2577.4,935.747l196.09,33.026,573.821-241.5Z" transform="translate(-2017.493 -709.575)" fill="none" stroke="#fff" stroke-width="1.5"/>
      </g>
    </g>
    <g id="Group_280" data-name="Group 280" transform="translate(7146 6699)" opacity="0.75">
      <rect id="Rectangle_1" data-name="Rectangle 1" width="1920" height="1080" fill="#0275b1"/>
    </g>
  </g>
</svg>
