<svg xmlns="http://www.w3.org/2000/svg" xmlns:xlink="http://www.w3.org/1999/xlink" width="76" height="76" viewBox="0 0 76 76">
  <defs>
    <linearGradient id="linear-gradient" y1="0.5" x2="1" y2="0.5" gradientUnits="objectBoundingBox">
      <stop offset="0" stop-color="#cc9401"/>
      <stop offset="0.19" stop-color="#cd9502"/>
      <stop offset="0.205" stop-color="#ca9603"/>
      <stop offset="0.216" stop-color="#c09807"/>
      <stop offset="0.227" stop-color="#af9c0f"/>
      <stop offset="0.237" stop-color="#96a118"/>
      <stop offset="0.247" stop-color="#77a825"/>
      <stop offset="0.256" stop-color="#52b035"/>
      <stop offset="0.261" stop-color="#3bb53e"/>
      <stop offset="0.479" stop-color="#3bb93c"/>
      <stop offset="0.48" stop-color="#3fb43b"/>
      <stop offset="0.502" stop-color="#88622a"/>
      <stop offset="0.518" stop-color="#b62e1f"/>
      <stop offset="0.525" stop-color="#c81a1b"/>
      <stop offset="0.728" stop-color="#c81a1b"/>
      <stop offset="0.738" stop-color="#c9261a" stop-opacity="0.996"/>
      <stop offset="0.757" stop-color="#cb4417" stop-opacity="0.992"/>
      <stop offset="0.77" stop-color="#cd5d15" stop-opacity="0.988"/>
      <stop offset="1" stop-color="#cc5d15"/>
    </linearGradient>
    <linearGradient id="linear-gradient-2" x1="0.329" y1="0.946" x2="0.719" y2="0.025" gradientUnits="objectBoundingBox">
      <stop offset="0" stop-color="#277dc6"/>
      <stop offset="0.476" stop-color="#3298d2"/>
      <stop offset="1" stop-color="#3db2dd"/>
    </linearGradient>
    <linearGradient id="linear-gradient-3" x1="0.36" y1="0.895" x2="0.58" y2="-0.326" gradientUnits="objectBoundingBox">
      <stop offset="0" stop-color="#184fb4"/>
      <stop offset="0.214" stop-color="#1b58b7"/>
      <stop offset="0.558" stop-color="#226fc1"/>
      <stop offset="0.987" stop-color="#2f96d0"/>
      <stop offset="1" stop-color="#2f97d1"/>
    </linearGradient>
    <linearGradient id="linear-gradient-4" y1="0.5" x2="1" y2="0.5" gradientUnits="objectBoundingBox">
      <stop offset="0" stop-color="#febd01"/>
      <stop offset="0.164" stop-color="#febd01"/>
      <stop offset="0.19" stop-color="#febd01"/>
      <stop offset="0.203" stop-color="#fbbe02"/>
      <stop offset="0.214" stop-color="#f1c007"/>
      <stop offset="0.224" stop-color="#e0c40e"/>
      <stop offset="0.233" stop-color="#c7c917"/>
      <stop offset="0.242" stop-color="#a8d024"/>
      <stop offset="0.251" stop-color="#82d934"/>
      <stop offset="0.259" stop-color="#56e246"/>
      <stop offset="0.261" stop-color="#4ae54b"/>
      <stop offset="0.479" stop-color="#4ae54b"/>
      <stop offset="0.488" stop-color="#6fbb42"/>
      <stop offset="0.506" stop-color="#b96931"/>
      <stop offset="0.519" stop-color="#e73526"/>
      <stop offset="0.525" stop-color="#f92122"/>
      <stop offset="0.728" stop-color="#f92122"/>
      <stop offset="0.735" stop-color="#fa2d1f"/>
      <stop offset="0.75" stop-color="#fb4b16"/>
      <stop offset="0.768" stop-color="#fe7d08"/>
      <stop offset="0.778" stop-color="#f90"/>
      <stop offset="1" stop-color="#fe9900"/>
    </linearGradient>
    <linearGradient id="linear-gradient-5" x1="0.092" y1="0.908" x2="0.908" y2="0.092" gradientUnits="objectBoundingBox">
      <stop offset="0.223" stop-color="#febd01"/>
      <stop offset="0.644" stop-color="#84da3a"/>
      <stop offset="0.835" stop-color="#52e652"/>
    </linearGradient>
    <linearGradient id="linear-gradient-6" x1="0.092" y1="0.908" x2="0.908" y2="0.092" gradientUnits="objectBoundingBox">
      <stop offset="0.269" stop-color="#f92122"/>
      <stop offset="0.599" stop-color="#fc7b1c"/>
      <stop offset="0.766" stop-color="#fea41a"/>
    </linearGradient>
    <linearGradient id="linear-gradient-7" x1="0.092" y1="0.092" x2="0.908" y2="0.908" gradientUnits="objectBoundingBox">
      <stop offset="0.17" stop-color="#4ae54b"/>
      <stop offset="0.27" stop-color="#60cc46"/>
      <stop offset="0.484" stop-color="#9a8b38"/>
      <stop offset="0.793" stop-color="#f62523"/>
      <stop offset="0.804" stop-color="#f92122"/>
    </linearGradient>
    <linearGradient id="linear-gradient-8" x1="0.495" y1="1.001" x2="0.5" y2="-0.032" gradientUnits="objectBoundingBox">
      <stop offset="0" stop-color="#1544a0"/>
      <stop offset="1" stop-color="#1745a3"/>
    </linearGradient>
    <linearGradient id="linear-gradient-9" x1="0.5" y1="1" x2="0.5" gradientUnits="objectBoundingBox">
      <stop offset="0" stop-color="#fff"/>
      <stop offset="1" stop-color="#fff" stop-opacity="0"/>
    </linearGradient>
    <linearGradient id="linear-gradient-10" x1="0.5" y1="1" x2="0.5" y2="0" xlink:href="#linear-gradient-9"/>
    <linearGradient id="linear-gradient-11" x1="0.5" y1="1" x2="0.5" y2="0" xlink:href="#linear-gradient-9"/>
  </defs>
  <g id="Group_257" data-name="Group 257" transform="translate(-238 106)">
    <rect id="Rectangle_224" data-name="Rectangle 224" width="76" height="76" rx="12" transform="translate(238 -106)" fill="#fff"/>
    <g id="Group_256" data-name="Group 256" transform="translate(1134 766.64)">
      <path id="Path_33" data-name="Path 33" d="M184.622,148.64h-8.3a1.6,1.6,0,0,0-1.6,1.6v7.952a1.577,1.577,0,0,0,.135.641l-3.535,3.535q-.073-.007-.145-.007h-8.3a1.018,1.018,0,0,0-.121.007l-3.549-3.549a1.572,1.572,0,0,0,.126-.624v-7.952a1.6,1.6,0,0,0-1.6-1.6h-8.3a1.6,1.6,0,0,0-1.6,1.6v7.952a1.577,1.577,0,0,0,.135.641l-3.535,3.535q-.073-.007-.145-.007h-8.3a1.6,1.6,0,0,0-1.6,1.6v7.952a1.6,1.6,0,0,0,1.6,1.6h8.3a1.6,1.6,0,0,0,1.6-1.6v-7.952a1.57,1.57,0,0,0-.16-.69l3.493-3.493a1.537,1.537,0,0,0,.21.015h8.3a1.457,1.457,0,0,0,.232-.019l3.479,3.479a1.577,1.577,0,0,0-.167.709v7.952a1.6,1.6,0,0,0,1.6,1.6h8.3a1.6,1.6,0,0,0,1.6-1.6v-7.952a1.57,1.57,0,0,0-.16-.69l3.493-3.493a1.539,1.539,0,0,0,.21.015h8.3a1.6,1.6,0,0,0,1.6-1.6v-7.952A1.6,1.6,0,0,0,184.622,148.64Z" transform="translate(-1018.498 -995.639)" fill="url(#linear-gradient)"/>
      <g id="Group_3" data-name="Group 3" transform="translate(-889 -865.091)">
        <path id="Path_34" data-name="Path 34" d="M201.734,206.07h-5.622a.481.481,0,0,0-.481.481v5.622a.481.481,0,0,0,.481.481h5.622a.481.481,0,0,0,.481-.481v-5.622A.481.481,0,0,0,201.734,206.07Z" transform="translate(-175.922 -174.084)" fill="#106196"/>
        <path id="Path_35" data-name="Path 35" d="M198.135,245.76a.225.225,0,0,0-.225.225v1.2a.225.225,0,0,0,.225.225h1.2a.225.225,0,0,0,.225-.225v-1.2a.225.225,0,0,0-.225-.225Z" transform="translate(-177.651 -204.172)" fill="#106196"/>
        <path id="Path_36" data-name="Path 36" d="M177.49,144.089v.849a.4.4,0,0,0,.4.4h.9a.4.4,0,0,0,.4-.4v-.849a.4.4,0,0,0-.4-.4h-.9A.4.4,0,0,0,177.49,144.089Z" transform="translate(-162.171 -126.796)" fill="#106196"/>
        <path id="Path_37" data-name="Path 37" d="M186.709,100.85h-6.651a1.168,1.168,0,0,0-1.169,1.169v6.38a1.168,1.168,0,0,0,1.169,1.169h6.651a1.168,1.168,0,0,0,1.169-1.169v-6.38A1.168,1.168,0,0,0,186.709,100.85Z" transform="translate(-163.232 -94.32)" fill="#106196"/>
        <path id="Path_38" data-name="Path 38" d="M220.58,245.111v2.33a.481.481,0,0,0,.481.481h2.33a.481.481,0,0,0,.481-.481v-2.33a.481.481,0,0,0-.481-.481h-2.33A.481.481,0,0,0,220.58,245.111Z" transform="translate(-194.836 -203.316)" fill="#106196"/>
        <path id="Path_39" data-name="Path 39" d="M139.111,154.183h5.315a1.321,1.321,0,0,0,1.321-1.321v-5.591a1.321,1.321,0,0,0-1.321-1.321h-5.315a1.321,1.321,0,0,0-1.321,1.321v5.591A1.321,1.321,0,0,0,139.111,154.183Z" transform="translate(-132.076 -128.509)" fill="#106196"/>
        <path id="Path_40" data-name="Path 40" d="M156.951,127.968a.4.4,0,0,0,.4-.4V124.8a.4.4,0,0,0-.4-.4h-2.881a.4.4,0,0,0-.4.4v2.77a.4.4,0,0,0,.4.4Z" transform="translate(-144.114 -112.173)" fill="#106196"/>
        <path id="Path_41" data-name="Path 41" d="M228.52,282.285v1.2a.225.225,0,0,0,.225.225h1.2a.225.225,0,0,0,.225-.225v-1.2a.225.225,0,0,0-.225-.225h-1.2A.223.223,0,0,0,228.52,282.285Z" transform="translate(-200.855 -231.69)" fill="#106196"/>
        <path id="Path_42" data-name="Path 42" d="M226.978,126.61h-1.522a.336.336,0,0,0-.336.336V128.4a.336.336,0,0,0,.336.336h1.522a.336.336,0,0,0,.336-.336v-1.456A.336.336,0,0,0,226.978,126.61Z" transform="translate(-198.278 -113.848)" fill="#106196"/>
        <path id="Path_43" data-name="Path 43" d="M251.379,116.867a.336.336,0,0,0,.336-.336v-.924a.336.336,0,0,0-.336-.336h-.973a.336.336,0,0,0-.336.336v.924a.336.336,0,0,0,.336.336Z" transform="translate(-217.192 -105.252)" fill="#106196"/>
        <path id="Path_44" data-name="Path 44" d="M280.869,153.187a.336.336,0,0,0,.336-.336v-.924a.336.336,0,0,0-.336-.336H279.9a.336.336,0,0,0-.336.336v.924a.336.336,0,0,0,.336.336Z" transform="translate(-239.547 -132.785)" fill="#106196"/>
        <path id="Path_45" data-name="Path 45" d="M261.41,171.9v4.41a.988.988,0,0,0,.987.987h4.611a.988.988,0,0,0,.987-.987V171.9a.988.988,0,0,0-.987-.987H262.4A.988.988,0,0,0,261.41,171.9Z" transform="translate(-225.788 -147.431)" fill="#106196"/>
        <path id="Path_46" data-name="Path 46" d="M250.07,270.429a.481.481,0,0,0,.481.481h1.234a.481.481,0,0,0,.481-.481v-1.507a.481.481,0,0,0-.481-.481h-1.234a.481.481,0,0,0-.481.481v1.507Z" transform="translate(-217.192 -221.365)" fill="#106196"/>
        <path id="Path_47" data-name="Path 47" d="M127.979,188.813h2.5a.4.4,0,0,0,.4-.4v-2.4a.4.4,0,0,0-.4-.4h-2.5a.4.4,0,0,0-.4.4v2.4A.4.4,0,0,0,127.979,188.813Z" transform="translate(-124.336 -158.582)" fill="#106196"/>
        <path id="Path_48" data-name="Path 48" d="M170.829,185.65a.4.4,0,0,0-.4.4v1.125a.4.4,0,0,0,.4.4h1.183a.4.4,0,0,0,.4-.4v-1.125a.4.4,0,0,0-.4-.4Z" transform="translate(-156.819 -158.605)" fill="#106196"/>
        <path id="Path_49" data-name="Path 49" d="M145.374,73.86a31.1,31.1,0,0,0-22.168,9.249,25.857,25.857,0,0,1,16.93-6.288q.784,0,1.553.048h-.827a.4.4,0,0,0-.4.4V79.93a.4.4,0,0,0,.4.4h2.77a.4.4,0,0,0,.4-.4V77.269a.385.385,0,0,0-.034-.16,25.646,25.646,0,0,1,3.327.723V79.11a.4.4,0,0,0,.4.4h1.4a.4.4,0,0,0,.4-.4v-.537a26.035,26.035,0,0,1,3.627,1.742h-1.7a.832.832,0,0,0-.832.832V88a.832.832,0,0,0,.832.832h7.118A.832.832,0,0,0,159.4,88v-2.62a26.036,26.036,0,0,1,3.6,5.107h6.929a2.091,2.091,0,0,1,2.09,2.09v9.813a2.091,2.091,0,0,1-2.09,2.09h-3.883a25.907,25.907,0,0,1-1.028,5.763h-1.614a.988.988,0,0,0-.987.987v4.909a26.3,26.3,0,0,1-1.645,2.422V117.6a.225.225,0,0,0-.225-.225h-1.2a.225.225,0,0,0-.225.225v1.2a.225.225,0,0,0,.225.225h1.057q-.682.853-1.435,1.645h-6.551a.988.988,0,0,0-.987.987v4.522a25.856,25.856,0,0,1-11.3,2.584l-.223,0c0-.007,0-.015,0-.022v-6.805a.988.988,0,0,0-.987-.987H131.85a.988.988,0,0,0-.987.987v5.124a25.889,25.889,0,0,1-6.143-3.368H127.6a.791.791,0,0,0,.791-.791V119.81a.791.791,0,0,0-.791-.791h-3.085a.791.791,0,0,0-.791.791v3.085c0,.007,0,.015,0,.022a25.91,25.91,0,0,1-9.53-18.984c-.015.38-.029.757-.029,1.139a31.111,31.111,0,0,0,2.284,11.734h0q.435,1.071.944,2.1a0,0,0,0,0,0,0q.508,1.027,1.089,2.008l.007.012q.577.976,1.222,1.906a.085.085,0,0,1,.012.019q.642.925,1.348,1.8l.022.029q.7.867,1.461,1.681c.012.012.024.024.036.039q.755.806,1.565,1.558l.051.048q.806.744,1.662,1.43c.022.017.044.036.068.053.285.227.573.45.869.668a.257.257,0,0,1,.027.019c.281.208.569.411.856.61l.082.058c.3.2.6.4.9.593l.075.046c.283.179.571.353.861.523l.1.058c.3.177.615.351.927.518.039.022.077.041.119.063.285.152.576.3.869.443.036.019.075.036.111.056q.472.229.951.443c.051.024.1.046.155.068.29.128.585.252.881.37.039.017.08.034.119.048.322.128.648.252.975.368.063.022.126.044.189.068.3.1.6.206.9.3l.119.039c.331.1.663.2,1,.3l.215.058c.307.082.615.162.924.235.036.01.075.019.111.027.339.08.68.15,1.023.218l.237.046c.319.06.641.116.963.167l.092.015c.346.053.694.1,1.045.14l.254.029c.336.039.675.07,1.016.1l.056,0c.356.027.711.046,1.069.063.087,0,.177.007.264.01.36.012.721.022,1.086.022s.726-.01,1.086-.022l.264-.01c.358-.015.714-.034,1.069-.063l.056,0c.341-.027.68-.06,1.016-.1l.254-.029c.351-.041.7-.087,1.045-.14l.092-.015c.322-.051.644-.106.963-.167.08-.015.157-.029.237-.046.344-.068.685-.14,1.021-.218.036-.01.073-.019.111-.027.31-.073.619-.152.927-.235l.215-.058c.334-.092.668-.191,1-.293.041-.012.08-.027.121-.039.3-.1.6-.2.9-.3.063-.022.126-.044.189-.068.327-.119.653-.24.975-.368.041-.017.08-.034.119-.048.3-.119.59-.242.881-.37l.155-.068q.479-.214.951-.443c.036-.019.075-.036.111-.056.293-.143.581-.293.869-.445.039-.022.077-.041.119-.063.312-.167.619-.339.927-.518l.1-.058c.29-.169.576-.344.861-.523l.075-.046q.454-.287.9-.593l.085-.058c.288-.2.573-.4.854-.61l.029-.022c.293-.218.583-.44.866-.668l.068-.053q.856-.686,1.662-1.43l.051-.046q.809-.751,1.565-1.558l.036-.039q.758-.813,1.461-1.681l.022-.029q.7-.875,1.348-1.8a.084.084,0,0,0,.012-.019q.646-.929,1.222-1.906a.018.018,0,0,0,0-.01q.581-.98,1.089-2.008a0,0,0,0,1,0,0A31.221,31.221,0,0,0,145.374,73.86Z" transform="translate(-114.17 -73.86)" fill="#106196"/>
        <path id="Path_50" data-name="Path 50" d="M250.07,149.854a.4.4,0,0,0,.4.4h2.5a.4.4,0,0,0,.4-.4v-2.4a.4.4,0,0,0-.4-.4h-2.5a.4.4,0,0,0-.4.4Z" transform="translate(-217.192 -129.351)" fill="#106196"/>
        <path id="Path_51" data-name="Path 51" d="M308.638,208.27h-1.522a.336.336,0,0,0-.336.336v1.456a.336.336,0,0,0,.336.336h1.522a.336.336,0,0,0,.336-.336v-1.456A.336.336,0,0,0,308.638,208.27Z" transform="translate(-260.182 -175.752)" fill="#106196"/>
      </g>
      <path id="Path_52" data-name="Path 52" d="M140.463,104.057v5.622a.481.481,0,0,1-.481.481h-5.622a.481.481,0,0,1-.481-.481v-5.622a.481.481,0,0,1,.481-.481h5.622A.481.481,0,0,1,140.463,104.057Zm-5.809,9.121a.225.225,0,0,0-.225.225v1.2a.225.225,0,0,0,.225.225h1.2a.225.225,0,0,0,.225-.225v-1.2a.225.225,0,0,0-.225-.225Zm-5.165-24.295v.849a.4.4,0,0,0,.4.4h.9a.4.4,0,0,0,.4-.4v-.849a.4.4,0,0,0-.4-.4h-.9A.4.4,0,0,0,129.489,88.883Zm8.158-10.761H131a1.168,1.168,0,0,0-1.169,1.169v6.38A1.168,1.168,0,0,0,131,86.839h6.651a1.168,1.168,0,0,0,1.169-1.169v-6.38A1.166,1.166,0,0,0,137.647,78.122Zm2.267,35.264v2.33a.481.481,0,0,0,.481.481h2.33a.481.481,0,0,0,.481-.481v-2.33a.481.481,0,0,0-.481-.481H140.4A.481.481,0,0,0,139.914,113.386ZM121.205,97.264h5.315a1.321,1.321,0,0,0,1.321-1.321V90.352a1.321,1.321,0,0,0-1.321-1.321h-5.315a1.321,1.321,0,0,0-1.321,1.321v5.591A1.321,1.321,0,0,0,121.205,97.264Zm5.8-9.876a.4.4,0,0,0,.4-.4v-2.77a.4.4,0,0,0-.4-.4h-2.881a.4.4,0,0,0-.4.4v2.77a.4.4,0,0,0,.4.4Zm14.828,34.8v1.2a.225.225,0,0,0,.225.225h1.2a.225.225,0,0,0,.225-.225v-1.2a.225.225,0,0,0-.225-.225h-1.2A.223.223,0,0,0,141.835,122.185Zm1.035-37.833h-1.522a.336.336,0,0,0-.336.336v1.456a.336.336,0,0,0,.336.336h1.522a.336.336,0,0,0,.336-.336V84.688A.337.337,0,0,0,142.87,84.352Zm5.487-1.147a.336.336,0,0,0,.336-.336v-.924a.336.336,0,0,0-.336-.336h-.973a.336.336,0,0,0-.336.336v.924a.336.336,0,0,0,.336.336Zm7.135,8.789a.336.336,0,0,0,.336-.336v-.924a.336.336,0,0,0-.336-.336h-.973a.336.336,0,0,0-.336.336v.924a.336.336,0,0,0,.336.336Zm-5.7,4.062v4.41a.988.988,0,0,0,.987.987h4.611a.988.988,0,0,0,.987-.987v-4.41a.988.988,0,0,0-.987-.987h-4.611A.988.988,0,0,0,149.792,96.056Zm-2.743,24.6a.481.481,0,0,0,.481.481h1.234a.481.481,0,0,0,.481-.481v-1.507a.481.481,0,0,0-.481-.481H147.53a.481.481,0,0,0-.481.481Zm-29.235-18.832h2.5a.4.4,0,0,0,.4-.4v-2.4a.4.4,0,0,0-.4-.4h-2.5a.4.4,0,0,0-.4.4v2.4A.4.4,0,0,0,117.813,101.822Zm10.367-3.186a.4.4,0,0,0-.4.4v1.125a.4.4,0,0,0,.4.4h1.183a.4.4,0,0,0,.4-.4V99.035a.4.4,0,0,0-.4-.4ZM145.374,71.59a31.1,31.1,0,0,0-22.168,9.249,25.857,25.857,0,0,1,16.93-6.288q.784,0,1.553.048h-.827a.4.4,0,0,0-.4.4V77.66a.4.4,0,0,0,.4.4h2.77a.4.4,0,0,0,.4-.4V75a.385.385,0,0,0-.034-.16,25.646,25.646,0,0,1,3.327.723V76.84a.4.4,0,0,0,.4.4h1.4a.4.4,0,0,0,.4-.4V76.3a26.035,26.035,0,0,1,3.627,1.742h-1.7a.832.832,0,0,0-.832.832v6.851a.832.832,0,0,0,.832.832h7.118a.832.832,0,0,0,.832-.832v-2.62a26.036,26.036,0,0,1,3.6,5.107h6.929a2.091,2.091,0,0,1,2.09,2.09v9.813a2.091,2.091,0,0,1-2.09,2.09h-3.883a25.907,25.907,0,0,1-1.028,5.763h-1.614a.988.988,0,0,0-.987.987v4.909a26.3,26.3,0,0,1-1.645,2.422v-.958a.225.225,0,0,0-.225-.225h-1.2a.225.225,0,0,0-.225.225v1.2a.225.225,0,0,0,.225.225h1.057q-.682.853-1.435,1.645h-6.551a.988.988,0,0,0-.987.987V123.9a25.856,25.856,0,0,1-11.3,2.584l-.223,0c0-.007,0-.015,0-.022v-6.805a.988.988,0,0,0-.987-.987H131.85a.988.988,0,0,0-.987.987v5.124a25.89,25.89,0,0,1-6.143-3.368H127.6a.791.791,0,0,0,.791-.791v-3.089a.791.791,0,0,0-.791-.791h-3.085a.791.791,0,0,0-.791.791v3.085c0,.007,0,.015,0,.022a25.91,25.91,0,0,1-9.53-18.984c-.015.38-.029.757-.029,1.139a31.111,31.111,0,0,0,2.284,11.734h0q.435,1.071.944,2.1a0,0,0,0,0,0,0q.508,1.027,1.089,2.008l.007.012q.577.976,1.222,1.906a.085.085,0,0,1,.012.019q.642.925,1.348,1.8l.022.029q.7.867,1.461,1.681c.012.012.024.024.036.039q.755.806,1.565,1.558l.051.048q.806.744,1.662,1.43c.022.017.044.036.068.053.285.227.573.45.869.668a.254.254,0,0,1,.027.019c.281.208.569.411.856.61l.082.058c.3.2.6.4.9.593l.075.046c.283.179.571.353.861.523l.1.058c.3.177.615.351.927.518.039.022.077.041.119.063.285.152.576.3.869.443.036.019.075.036.111.056q.472.229.951.443c.051.024.1.046.155.068.29.128.585.252.881.37.039.017.08.034.119.048.322.128.648.252.975.368.063.022.126.044.189.068.3.1.6.206.9.3l.119.039c.331.1.663.2,1,.3l.215.058c.307.082.615.162.924.235.036.01.075.019.111.027.339.08.68.15,1.023.218l.237.046c.319.06.641.116.963.167l.092.015c.346.053.694.1,1.045.14l.254.029c.336.039.675.07,1.016.1l.056,0c.356.027.711.046,1.069.063.087,0,.177.007.264.01.36.012.721.022,1.086.022s.726-.01,1.086-.022l.264-.01c.358-.015.714-.034,1.069-.063l.056,0c.341-.027.68-.06,1.016-.1l.254-.029c.351-.041.7-.087,1.045-.14l.092-.015c.322-.051.644-.106.963-.167.08-.014.157-.029.237-.046.344-.068.685-.14,1.021-.218.036-.01.073-.019.111-.027.31-.073.619-.152.927-.235l.215-.058c.334-.092.668-.191,1-.293.041-.012.08-.027.121-.039.3-.1.6-.2.9-.3.063-.022.126-.044.189-.068.327-.119.653-.24.975-.368.041-.017.08-.034.119-.048.3-.119.59-.242.881-.37l.155-.068q.479-.214.951-.443c.036-.019.075-.036.111-.056.293-.143.581-.293.869-.445.039-.022.077-.041.119-.063.312-.167.619-.339.927-.518l.1-.058c.29-.169.576-.344.861-.523l.075-.046q.454-.287.9-.593l.085-.058c.288-.2.573-.4.854-.61l.029-.022c.293-.218.583-.44.866-.668l.068-.053q.856-.686,1.662-1.43l.051-.046q.809-.751,1.565-1.558l.036-.039q.758-.813,1.461-1.681l.022-.029q.7-.875,1.348-1.8a.084.084,0,0,0,.012-.019q.646-.929,1.222-1.906a.018.018,0,0,0,0-.01q.581-.98,1.089-2.008a0,0,0,0,1,0,0,31.217,31.217,0,0,0-27.979-45.04Zm1.674,20.5a.4.4,0,0,0,.4.4h2.5a.4.4,0,0,0,.4-.4V89.7a.4.4,0,0,0-.4-.4h-2.5a.4.4,0,0,0-.4.4Zm15.578,12.288H161.1a.336.336,0,0,0-.336.336v1.456a.336.336,0,0,0,.336.336h1.522a.336.336,0,0,0,.336-.336v-1.456A.337.337,0,0,0,162.626,104.381Z" transform="translate(-1003.17 -937.23)" fill="url(#linear-gradient-2)"/>
      <path id="Path_53" data-name="Path 53" d="M135.847,205.314a.225.225,0,0,1,.225.225v1.2a.225.225,0,0,1-.225.225h-1.2a.225.225,0,0,1-.225-.225v-1.2a.225.225,0,0,1,.225-.225Zm6.215,10.427h1.2a.225.225,0,0,0,.225-.225v-1.2a.225.225,0,0,0-.225-.225h-1.2a.225.225,0,0,0-.225.225v1.2A.223.223,0,0,0,142.062,215.741Zm1.144-7.889v-2.33a.481.481,0,0,0-.481-.481H140.4a.481.481,0,0,0-.481.481v2.33a.481.481,0,0,0,.481.481h2.33A.481.481,0,0,0,143.206,207.851Zm19.207-5.966V206a26.29,26.29,0,0,1-1.645,2.422v-.958a.225.225,0,0,0-.225-.225h-1.2a.225.225,0,0,0-.225.225v1.2a.225.225,0,0,0,.225.225h1.057q-.682.853-1.435,1.645h-6.544a.988.988,0,0,0-.987.987v4.522a25.856,25.856,0,0,1-11.3,2.584l-.223,0c0-.007,0-.015,0-.022v-6.805a.988.988,0,0,0-.987-.987H131.85a.988.988,0,0,0-.987.987v5.124a25.889,25.889,0,0,1-6.143-3.368H127.6a.791.791,0,0,0,.791-.791v-3.082a.791.791,0,0,0-.791-.791h-3.085a.791.791,0,0,0-.791.791v3.085c0,.007,0,.015,0,.022a25.91,25.91,0,0,1-9.53-18.984c-.015.38-.029.757-.029,1.139a31.111,31.111,0,0,0,2.284,11.734h0q.435,1.071.944,2.1a0,0,0,0,0,0,0q.508,1.027,1.089,2.008l.007.012q.577.976,1.222,1.906a.085.085,0,0,1,.012.019q.642.925,1.348,1.8l.022.029q.7.867,1.461,1.681c.012.012.024.024.036.039q.755.806,1.565,1.558l.051.048q.806.744,1.662,1.43c.022.017.044.036.068.053.285.227.573.45.869.668a.254.254,0,0,1,.027.019c.281.208.569.411.856.61l.082.058c.3.2.6.4.9.593l.075.046c.283.179.571.353.861.523l.1.058c.3.177.615.351.927.518.039.022.077.041.119.063.285.152.576.3.869.443.036.019.075.036.111.056q.472.229.951.443c.051.024.1.046.155.068.29.128.585.252.881.37.039.017.08.034.119.048.322.128.648.252.975.368.063.022.126.044.189.068.3.1.6.206.9.3l.119.039c.331.1.663.2,1,.3l.215.058c.307.082.615.162.924.235.036.01.075.019.111.027.339.08.68.15,1.023.218l.237.046c.319.06.641.116.963.167l.092.015c.346.053.694.1,1.045.14l.254.029c.336.039.675.07,1.016.1l.056,0c.356.027.711.046,1.069.063.087,0,.177.007.264.01.36.012.721.022,1.086.022s.726-.01,1.086-.022l.264-.01c.358-.015.714-.034,1.069-.063l.056,0c.341-.027.68-.06,1.016-.1l.254-.029c.351-.041.7-.087,1.045-.14l.092-.015c.322-.051.644-.106.963-.167.08-.015.157-.029.237-.046.344-.068.685-.14,1.021-.218.036-.01.073-.019.111-.027.31-.073.619-.152.927-.235l.215-.058c.334-.092.668-.191,1-.293.041-.012.08-.027.121-.039.3-.1.6-.2.9-.3.063-.022.126-.044.189-.068.327-.119.653-.24.975-.368.041-.017.08-.034.119-.048.3-.119.59-.242.881-.37l.155-.068q.479-.214.951-.443c.036-.019.075-.036.111-.056.293-.143.581-.293.869-.445.039-.022.077-.041.119-.063.312-.167.619-.339.927-.518l.1-.058c.29-.169.576-.344.861-.523l.075-.046q.454-.287.9-.593l.085-.058c.288-.2.573-.4.854-.61l.029-.022c.293-.218.583-.44.866-.668l.068-.053q.856-.686,1.662-1.43l.051-.046q.809-.751,1.565-1.558l.036-.039q.758-.813,1.461-1.681l.022-.029q.7-.875,1.348-1.8a.084.084,0,0,0,.012-.019q.646-.929,1.222-1.906a.018.018,0,0,0,0-.01q.581-.98,1.089-2.008a0,0,0,0,1,0,0,31.058,31.058,0,0,0,3.227-13.831c0-.6-.019-1.207-.053-1.8A39.89,39.89,0,0,1,162.413,201.885ZM147.53,213.271h1.234a.481.481,0,0,0,.481-.481v-1.507a.481.481,0,0,0-.481-.481H147.53a.481.481,0,0,0-.481.481v1.507A.481.481,0,0,0,147.53,213.271Z" transform="translate(-1003.17 -1029.366)" fill="url(#linear-gradient-3)"/>
      <path id="Path_54" data-name="Path 54" d="M184.622,146.37h-8.3a1.6,1.6,0,0,0-1.6,1.6v7.952a1.577,1.577,0,0,0,.135.641l-3.535,3.535q-.073-.007-.145-.007h-8.3a1.011,1.011,0,0,0-.121.007l-3.549-3.549a1.572,1.572,0,0,0,.126-.624v-7.952a1.6,1.6,0,0,0-1.6-1.6h-8.3a1.6,1.6,0,0,0-1.6,1.6v7.952a1.577,1.577,0,0,0,.135.641l-3.535,3.535q-.073-.007-.145-.007h-8.3a1.6,1.6,0,0,0-1.6,1.6v7.952a1.6,1.6,0,0,0,1.6,1.6h8.3a1.6,1.6,0,0,0,1.6-1.6v-7.952a1.57,1.57,0,0,0-.16-.689l3.493-3.493a1.537,1.537,0,0,0,.21.015h8.3a1.455,1.455,0,0,0,.232-.019l3.479,3.479a1.577,1.577,0,0,0-.167.709v7.952a1.6,1.6,0,0,0,1.6,1.6h8.3a1.6,1.6,0,0,0,1.6-1.6v-7.952a1.57,1.57,0,0,0-.16-.689l3.493-3.493a1.539,1.539,0,0,0,.21.015h8.3a1.6,1.6,0,0,0,1.6-1.6v-7.952A1.6,1.6,0,0,0,184.622,146.37Z" transform="translate(-1018.498 -993.918)" fill="url(#linear-gradient-4)"/>
      <path id="Path_74" data-name="Path 74" d="M178.551,185.27l1.1,1.1-4.851,4.848-1.1-1.1Z" transform="translate(-1048.298 -1023.407)" fill="url(#linear-gradient-5)"/>
      <path id="Path_75" data-name="Path 75" d="M288.561,186.4l1.1,1.1-4.848,4.851-1.1-1.1Z" transform="translate(-1131.693 -1024.264)" fill="url(#linear-gradient-6)"/>
      <path id="Path_76" data-name="Path 76" d="M229.27,186.368l1.1-1.1,4.851,4.851-1.1,1.1Z" transform="translate(-1090.424 -1023.407)" fill="url(#linear-gradient-7)"/>
      <path id="Path_77" data-name="Path 77" d="M189.507,271.245l-.024.029c-.5.578-1.021,1.139-1.56,1.681l-.039.039q-.806.806-1.674,1.558l-.053.046q-.86.744-1.776,1.43l-.073.053q-.457.341-.927.668a.353.353,0,0,1-.031.022q-.45.312-.912.61l-.09.058c-.317.2-.636.4-.96.593l-.08.046c-.3.179-.61.353-.919.523l-.106.058c-.327.177-.656.351-.99.518-.041.022-.085.041-.126.063-.307.152-.615.3-.927.445-.041.019-.08.036-.119.056q-.5.229-1.016.443c-.056.024-.111.046-.167.068-.312.128-.624.252-.941.37-.044.017-.085.034-.128.048-.344.128-.692.252-1.04.368-.068.022-.135.044-.2.068-.317.1-.636.206-.958.3-.044.012-.085.027-.128.039-.353.1-.709.2-1.067.293l-.23.058c-.329.082-.658.162-.989.235-.039.01-.077.019-.119.027-.36.08-.726.15-1.091.218l-.254.046c-.341.06-.685.116-1.028.167l-.1.015c-.37.053-.743.1-1.115.14l-.271.029c-.36.039-.721.07-1.086.1l-.058,0c-.38.027-.76.046-1.142.063-.094,0-.189.007-.283.01-.385.012-.772.022-1.159.022s-.774-.01-1.159-.022l-.283-.01c-.382-.015-.764-.034-1.142-.063l-.058,0c-.363-.027-.726-.06-1.086-.1l-.271-.029c-.375-.041-.748-.087-1.115-.14l-.1-.015c-.346-.051-.687-.106-1.031-.167-.085-.014-.169-.029-.252-.046-.365-.068-.731-.14-1.091-.218-.039-.01-.08-.019-.119-.027-.331-.073-.66-.152-.989-.235l-.232-.058c-.358-.092-.714-.191-1.067-.3-.044-.012-.085-.027-.128-.039-.322-.1-.644-.2-.96-.3-.068-.022-.135-.044-.2-.068-.351-.119-.7-.24-1.04-.368l-.128-.048c-.317-.119-.629-.242-.941-.37l-.167-.068q-.512-.214-1.016-.443c-.041-.019-.08-.036-.119-.056-.312-.143-.622-.293-.927-.443-.041-.022-.085-.041-.126-.063q-.5-.25-.989-.518l-.106-.058c-.31-.169-.617-.344-.919-.523l-.08-.046c-.324-.194-.644-.39-.96-.593-.029-.019-.058-.039-.09-.058q-.464-.3-.914-.61l-.029-.019c-.315-.218-.622-.44-.927-.668-.024-.017-.048-.036-.07-.053q-.914-.686-1.776-1.43l-.056-.048q-.867-.751-1.674-1.558l-.039-.039c-.3-.3-.6-.612-.885-.927a31.2,31.2,0,0,0,51.526-1.159C189.715,271,189.613,271.124,189.507,271.245Z" transform="translate(-1021.455 -1088.298)" fill="url(#linear-gradient-8)"/>
      <path id="Path_78" data-name="Path 78" d="M312.6,151.615v-3.656a1.6,1.6,0,0,0-1.6-1.6h-8.3a1.6,1.6,0,0,0-1.6,1.6v7.248A38.239,38.239,0,0,0,312.6,151.615Z" transform="translate(-1144.876 -993.911)" opacity="0.25" fill="url(#linear-gradient-9)"/>
      <path id="Path_79" data-name="Path 79" d="M257.029,208.325v-3.656a1.6,1.6,0,0,0-1.6-1.6h-8.3a1.6,1.6,0,0,0-1.6,1.6v7.248A38.385,38.385,0,0,0,257.029,208.325Z" transform="translate(-1102.75 -1036.901)" opacity="0.25" fill="url(#linear-gradient-10)"/>
      <path id="Path_80" data-name="Path 80" d="M201.459,151.615v-3.656a1.6,1.6,0,0,0-1.6-1.6h-8.3a1.6,1.6,0,0,0-1.6,1.6v7.248A38.239,38.239,0,0,0,201.459,151.615Z" transform="translate(-1060.624 -993.911)" opacity="0.25" fill="url(#linear-gradient-11)"/>
      <path id="Path_81" data-name="Path 81" d="M145.889,208.325v-3.656a1.6,1.6,0,0,0-1.6-1.6h-8.3a1.6,1.6,0,0,0-1.6,1.6v7.248A38.406,38.406,0,0,0,145.889,208.325Z" transform="translate(-1018.498 -1036.901)" opacity="0.25" fill="url(#linear-gradient-10)"/>
    </g>
  </g>
</svg>
