<?xml version="1.0" encoding="utf-8"?>
<!-- Generator: Adobe Illustrator 24.2.3, SVG Export Plug-In . SVG Version: 6.00 Build 0)  -->
<svg version="1.1" id="Layer_1" xmlns="http://www.w3.org/2000/svg" xmlns:xlink="http://www.w3.org/1999/xlink" x="0px" y="0px"
	 viewBox="0 0 100 100" style="enable-background:new 0 0 100 100;" xml:space="preserve">
<style type="text/css">
	.st0{fill:url(#SVGID_1_);}
	.st1{fill:#106196;}
	.st2{fill:url(#SVGID_2_);}
	.st3{fill:url(#SVGID_3_);}
	.st4{fill:url(#SVGID_4_);}
	.st5{fill:url(#SVGID_5_);}
	.st6{fill:url(#SVGID_6_);}
	.st7{fill:url(#SVGID_7_);}
	.st8{fill:url(#SVGID_8_);}
	.st9{opacity:0.25;fill:url(#SVGID_9_);enable-background:new    ;}
	.st10{opacity:0.25;fill:url(#SVGID_10_);enable-background:new    ;}
	.st11{opacity:0.25;fill:url(#SVGID_11_);enable-background:new    ;}
	.st12{opacity:0.25;fill:url(#SVGID_12_);enable-background:new    ;}
	.st13{fill:#4D4D4D;}
	.st14{fill:url(#SVGID_13_);}
	.st15{fill:url(#SVGID_14_);}
	.st16{fill:url(#SVGID_15_);}
	.st17{fill:url(#SVGID_16_);}
	.st18{fill:url(#SVGID_17_);}
	.st19{fill:url(#SVGID_18_);}
	.st20{fill:url(#SVGID_19_);}
</style>
<g>
	<g>
		<path class="st13" d="M53.57,94.17H22.73c-3.25,0-5.9-2.65-5.9-5.9V33.74c0-3.25,2.65-5.9,5.9-5.9h30.84c3.25,0,5.9,2.65,5.9,5.9
			v54.53C59.47,91.52,56.82,94.17,53.57,94.17z M22.73,29.86c-2.14,0-3.88,1.74-3.88,3.88v54.53c0,2.14,1.74,3.88,3.88,3.88h30.84
			c2.14,0,3.88-1.74,3.88-3.88V33.74c0-2.14-1.74-3.88-3.88-3.88H22.73z"/>
		<rect x="33.07" y="32.92" class="st13" width="10.15" height="2.02"/>
		<path class="st13" d="M38.15,89.09c-1.49,0-2.7-1.21-2.7-2.7c0-1.49,1.21-2.7,2.7-2.7s2.7,1.21,2.7,2.7
			C40.85,87.88,39.64,89.09,38.15,89.09z M38.15,85.71c-0.38,0-0.69,0.31-0.69,0.68c0,0.38,0.31,0.69,0.69,0.69
			c0.38,0,0.68-0.31,0.68-0.69C38.84,86.01,38.53,85.71,38.15,85.71z"/>
		<rect x="19.53" y="39.69" class="st13" width="37.23" height="2.02"/>
		<rect x="17.84" y="76.92" class="st13" width="40.62" height="2.02"/>
	</g>
	<path class="st13" d="M66.62,32.23H64.6c0-4.32-3.51-7.84-7.84-7.84v-2.02C62.2,22.38,66.62,26.8,66.62,32.23z"/>
	<path class="st13" d="M74.23,32.23h-2.02c0-8.52-6.93-15.44-15.45-15.44v-2.02C66.4,14.77,74.23,22.61,74.23,32.23z"/>
	<path class="st13" d="M83.17,31.6h-2.02c0-13.1-10.65-23.75-23.75-23.75V5.83C71.61,5.83,83.17,17.39,83.17,31.6z"/>
</g>
</svg>
