<?xml version="1.0" encoding="utf-8"?>
<!-- Generator: Adobe Illustrator 24.2.3, SVG Export Plug-In . SVG Version: 6.00 Build 0)  -->
<svg version="1.1" id="Layer_1" xmlns="http://www.w3.org/2000/svg" xmlns:xlink="http://www.w3.org/1999/xlink" x="0px" y="0px"
	 viewBox="0 0 160 60" style="enable-background:new 0 0 160 60;" xml:space="preserve">
<style type="text/css">
	.st0{fill:url(#SVGID_1_);}
	.st1{fill:#106196;}
	.st2{fill:url(#SVGID_2_);}
	.st3{fill:url(#SVGID_3_);}
	.st4{fill:url(#SVGID_4_);}
	.st5{fill:url(#SVGID_5_);}
	.st6{fill:url(#SVGID_6_);}
	.st7{fill:url(#SVGID_7_);}
	.st8{fill:url(#SVGID_8_);}
	.st9{opacity:0.25;fill:url(#SVGID_9_);enable-background:new    ;}
	.st10{opacity:0.25;fill:url(#SVGID_10_);enable-background:new    ;}
	.st11{opacity:0.25;fill:url(#SVGID_11_);enable-background:new    ;}
	.st12{opacity:0.25;fill:url(#SVGID_12_);enable-background:new    ;}
	.st13{fill:#4D4D4D;}
	.st14{fill:url(#SVGID_13_);}
	.st15{fill:url(#SVGID_14_);}
	.st16{fill:url(#SVGID_15_);}
	.st17{fill:url(#SVGID_16_);}
	.st18{fill:url(#SVGID_17_);}
	.st19{fill:url(#SVGID_18_);}
	.st20{fill:url(#SVGID_19_);}
</style>
<g>
	<g>
		<linearGradient id="SVGID_1_" gradientUnits="userSpaceOnUse" x1="25.8668" y1="7.1332" x2="25.8668" y2="52.8668">
			<stop  offset="0.0733" style="stop-color:#00A6FF"/>
			<stop  offset="0.1798" style="stop-color:#01B0FE"/>
			<stop  offset="0.4579" style="stop-color:#05C4FC"/>
			<stop  offset="0.7331" style="stop-color:#06D1FB"/>
			<stop  offset="1" style="stop-color:#07D5FB"/>
		</linearGradient>
		<path class="st0" d="M25.87,12.94c9.41,0,17.06,7.65,17.06,17.06s-7.65,17.06-17.06,17.06C16.46,47.06,8.8,39.41,8.8,30
			S16.46,12.94,25.87,12.94 M25.87,7.13C13.24,7.13,3,17.37,3,30s10.24,22.87,22.87,22.87S48.73,42.63,48.73,30
			S38.5,7.13,25.87,7.13L25.87,7.13z"/>
		<linearGradient id="SVGID_2_" gradientUnits="userSpaceOnUse" x1="25.8668" y1="10.2273" x2="25.8668" y2="46.5023">
			<stop  offset="0.2915" style="stop-color:#E73526"/>
			<stop  offset="0.3686" style="stop-color:#E3382A"/>
			<stop  offset="0.4494" style="stop-color:#D64136"/>
			<stop  offset="0.5319" style="stop-color:#C1504A"/>
			<stop  offset="0.6155" style="stop-color:#A46566"/>
			<stop  offset="0.7001" style="stop-color:#7E808A"/>
			<stop  offset="0.7855" style="stop-color:#50A1B6"/>
			<stop  offset="0.87" style="stop-color:#1AC8E9"/>
			<stop  offset="0.897" style="stop-color:#07D5FB"/>
		</linearGradient>
		<path class="st2" d="M10.99,46.25c-0.8,0-1.59-0.33-2.16-0.97C5.07,41.09,3,35.68,3,30.04c0-3.06,0.6-6.03,1.77-8.83
			c0.58-1.39,1.75-2.42,3.21-2.83c1.48-0.42,3.04-0.14,4.28,0.76l13.61,9.82l13.61-9.82c1.25-0.9,2.8-1.17,4.28-0.76
			c1.46,0.41,2.63,1.44,3.21,2.83c1.17,2.8,1.77,5.77,1.77,8.83c0,5.63-2.07,11.05-5.82,15.25c-1.07,1.19-2.9,1.3-4.1,0.23
			c-1.19-1.07-1.3-2.9-0.23-4.1c2.8-3.13,4.35-7.17,4.35-11.37c0-1.92-0.31-3.78-0.93-5.57l-13.22,9.54c-1.74,1.26-4.08,1.26-5.82,0
			L9.73,24.47c-0.62,1.78-0.93,3.65-0.93,5.57c0,4.2,1.54,8.24,4.34,11.37c1.07,1.19,0.97,3.03-0.23,4.1
			C12.37,46.01,11.68,46.25,10.99,46.25z"/>
	</g>
	<g>
		<linearGradient id="SVGID_3_" gradientUnits="userSpaceOnUse" x1="71.2316" y1="17.7329" x2="71.2316" y2="37.5879">
			<stop  offset="0" style="stop-color:#07D5FB"/>
			<stop  offset="0.2669" style="stop-color:#06D1FB"/>
			<stop  offset="0.5421" style="stop-color:#05C4FC"/>
			<stop  offset="0.8202" style="stop-color:#01B0FE"/>
			<stop  offset="0.9267" style="stop-color:#00A6FF"/>
		</linearGradient>
		<path class="st3" d="M83.24,31.59c0,2.1-0.26,3.99-0.78,5.65c-0.52,1.66-1.3,3.07-2.33,4.22c-1.03,1.16-2.31,2.04-3.83,2.65
			s-3.28,0.91-5.28,0.91c-1.97,0-3.69-0.26-5.17-0.77s-2.7-1.3-3.68-2.36c-0.98-1.06-1.72-2.4-2.21-4.04
			c-0.49-1.63-0.74-3.57-0.74-5.8c0-2.05,0.26-3.9,0.78-5.54s1.3-3.04,2.33-4.19c1.03-1.15,2.31-2.03,3.83-2.65
			c1.52-0.61,3.29-0.92,5.3-0.92c1.92,0,3.62,0.25,5.09,0.76c1.47,0.51,2.7,1.29,3.69,2.35c0.99,1.06,1.73,2.4,2.24,4.01
			C82.99,27.49,83.24,29.39,83.24,31.59z M77.83,31.86c0-1.33-0.1-2.55-0.31-3.64c-0.21-1.09-0.57-2.03-1.07-2.8
			c-0.5-0.78-1.17-1.38-2.01-1.8c-0.84-0.42-1.88-0.64-3.14-0.64c-1.27,0-2.33,0.24-3.18,0.72c-0.85,0.48-1.54,1.11-2.06,1.91
			c-0.52,0.8-0.89,1.73-1.11,2.79c-0.22,1.07-0.32,2.19-0.32,3.38c0,1.39,0.1,2.63,0.31,3.74c0.21,1.1,0.56,2.05,1.06,2.83
			c0.5,0.78,1.16,1.38,2,1.79c0.84,0.41,1.89,0.62,3.16,0.62c1.27,0,2.33-0.24,3.18-0.71s1.54-1.11,2.06-1.92
			c0.52-0.81,0.89-1.75,1.11-2.83S77.83,33.08,77.83,31.86z"/>
		<linearGradient id="SVGID_4_" gradientUnits="userSpaceOnUse" x1="102.357" y1="17.7329" x2="102.357" y2="37.5879">
			<stop  offset="0" style="stop-color:#07D5FB"/>
			<stop  offset="0.2669" style="stop-color:#06D1FB"/>
			<stop  offset="0.5421" style="stop-color:#05C4FC"/>
			<stop  offset="0.8202" style="stop-color:#01B0FE"/>
			<stop  offset="0.9267" style="stop-color:#00A6FF"/>
		</linearGradient>
		<path class="st4" d="M117.14,43.86c0,0.13-0.04,0.25-0.11,0.35s-0.2,0.19-0.39,0.25s-0.44,0.12-0.75,0.16s-0.71,0.06-1.19,0.06
			c-0.47,0-0.86-0.02-1.18-0.06c-0.31-0.04-0.56-0.09-0.75-0.16c-0.18-0.07-0.31-0.15-0.39-0.25s-0.12-0.22-0.12-0.35V23.22h-0.04
			l-7.35,20.63c-0.05,0.17-0.14,0.31-0.25,0.42c-0.12,0.11-0.28,0.2-0.48,0.26c-0.2,0.07-0.46,0.11-0.77,0.13s-0.69,0.03-1.14,0.03
			c-0.44,0-0.82-0.02-1.14-0.05s-0.57-0.08-0.77-0.16c-0.2-0.07-0.36-0.16-0.48-0.26s-0.2-0.23-0.24-0.37l-7.1-20.63h-0.04v20.65
			c0,0.13-0.04,0.25-0.11,0.35c-0.07,0.1-0.21,0.19-0.4,0.25s-0.45,0.12-0.75,0.16c-0.31,0.04-0.7,0.06-1.19,0.06
			c-0.47,0-0.86-0.02-1.18-0.06s-0.57-0.09-0.75-0.16s-0.32-0.15-0.39-0.25s-0.11-0.22-0.11-0.35V21.26c0-0.67,0.18-1.18,0.53-1.53
			c0.35-0.35,0.82-0.53,1.41-0.53h3.37c0.6,0,1.12,0.05,1.55,0.15c0.43,0.1,0.8,0.26,1.12,0.49c0.31,0.23,0.58,0.53,0.78,0.9
			c0.21,0.37,0.39,0.83,0.55,1.38l5.49,15.12h0.08l5.69-15.08c0.17-0.55,0.36-1.01,0.56-1.39c0.2-0.38,0.44-0.69,0.71-0.92
			c0.27-0.24,0.58-0.4,0.95-0.5c0.37-0.1,0.79-0.15,1.27-0.15h3.47c0.35,0,0.66,0.05,0.91,0.14c0.25,0.09,0.46,0.23,0.63,0.4
			c0.16,0.18,0.29,0.39,0.37,0.65s0.13,0.55,0.13,0.87V43.86z"/>
		<linearGradient id="SVGID_5_" gradientUnits="userSpaceOnUse" x1="129.2863" y1="17.7329" x2="129.2863" y2="37.5879">
			<stop  offset="0" style="stop-color:#07D5FB"/>
			<stop  offset="0.2669" style="stop-color:#06D1FB"/>
			<stop  offset="0.5421" style="stop-color:#05C4FC"/>
			<stop  offset="0.8202" style="stop-color:#01B0FE"/>
			<stop  offset="0.9267" style="stop-color:#00A6FF"/>
		</linearGradient>
		<path class="st5" d="M137.28,43.96c0,0.18-0.07,0.33-0.2,0.43c-0.13,0.1-0.34,0.18-0.62,0.23s-0.7,0.07-1.25,0.07
			c-0.59,0-1.02-0.02-1.28-0.07s-0.46-0.12-0.57-0.23s-0.17-0.25-0.17-0.43v-1.39c-0.72,0.77-1.54,1.37-2.46,1.8
			c-0.92,0.43-1.94,0.65-3.07,0.65c-0.93,0-1.78-0.12-2.56-0.36c-0.78-0.24-1.45-0.6-2.02-1.08c-0.57-0.48-1.01-1.07-1.32-1.77
			c-0.31-0.71-0.47-1.53-0.47-2.47c0-1.02,0.2-1.91,0.6-2.66c0.4-0.75,0.99-1.37,1.78-1.86c0.79-0.49,1.77-0.85,2.95-1.09
			s2.54-0.35,4.1-0.35h1.71v-1.06c0-0.55-0.06-1.03-0.17-1.44c-0.11-0.41-0.29-0.75-0.55-1.03c-0.25-0.27-0.59-0.48-1.02-0.61
			c-0.42-0.13-0.95-0.2-1.58-0.2c-0.82,0-1.56,0.09-2.21,0.27s-1.22,0.39-1.72,0.61c-0.5,0.22-0.91,0.43-1.25,0.61
			c-0.33,0.18-0.6,0.27-0.81,0.27c-0.14,0-0.27-0.05-0.38-0.14c-0.11-0.09-0.2-0.22-0.27-0.39c-0.07-0.17-0.13-0.38-0.17-0.63
			c-0.04-0.25-0.06-0.52-0.06-0.82c0-0.41,0.03-0.73,0.1-0.96c0.07-0.24,0.19-0.45,0.37-0.64c0.18-0.19,0.5-0.4,0.96-0.63
			c0.46-0.23,0.99-0.44,1.61-0.64c0.61-0.2,1.28-0.36,2.01-0.48c0.73-0.12,1.47-0.19,2.25-0.19c1.37,0,2.54,0.13,3.52,0.4
			c0.97,0.27,1.77,0.68,2.4,1.24s1.08,1.27,1.37,2.15c0.29,0.88,0.43,1.92,0.43,3.12V43.96z M132.43,36.47h-1.88
			c-0.8,0-1.48,0.06-2.04,0.18c-0.56,0.12-1.02,0.29-1.37,0.53c-0.35,0.24-0.61,0.52-0.77,0.85c-0.16,0.33-0.25,0.72-0.25,1.15
			c0,0.73,0.23,1.31,0.7,1.72c0.46,0.42,1.11,0.63,1.93,0.63c0.69,0,1.33-0.18,1.91-0.53c0.58-0.35,1.17-0.87,1.77-1.55V36.47z"/>
		<linearGradient id="SVGID_6_" gradientUnits="userSpaceOnUse" x1="144.6679" y1="17.7329" x2="144.6679" y2="37.5879">
			<stop  offset="0" style="stop-color:#07D5FB"/>
			<stop  offset="0.2669" style="stop-color:#06D1FB"/>
			<stop  offset="0.5421" style="stop-color:#05C4FC"/>
			<stop  offset="0.8202" style="stop-color:#01B0FE"/>
			<stop  offset="0.9267" style="stop-color:#00A6FF"/>
		</linearGradient>
		<path class="st6" d="M147.51,20.49c0,0.99-0.2,1.68-0.61,2.06c-0.41,0.38-1.16,0.57-2.25,0.57c-1.11,0-1.86-0.18-2.25-0.55
			c-0.39-0.37-0.58-1.03-0.58-1.98c0-0.99,0.2-1.68,0.6-2.07c0.4-0.39,1.15-0.58,2.26-0.58c1.1,0,1.84,0.19,2.24,0.56
			C147.31,18.87,147.51,19.54,147.51,20.49z M147.14,43.9c0,0.13-0.04,0.25-0.12,0.34c-0.08,0.1-0.21,0.18-0.4,0.25
			c-0.19,0.07-0.44,0.11-0.75,0.15s-0.71,0.05-1.2,0.05s-0.88-0.02-1.2-0.05s-0.57-0.08-0.75-0.15c-0.19-0.07-0.32-0.15-0.4-0.25
			s-0.12-0.21-0.12-0.34V26.45c0-0.13,0.04-0.25,0.12-0.34s0.21-0.18,0.4-0.25c0.19-0.07,0.44-0.13,0.75-0.17s0.71-0.06,1.2-0.06
			s0.88,0.02,1.2,0.06s0.57,0.09,0.75,0.17c0.19,0.07,0.32,0.16,0.4,0.25c0.08,0.1,0.12,0.21,0.12,0.34V43.9z"/>
		<linearGradient id="SVGID_7_" gradientUnits="userSpaceOnUse" x1="154.5294" y1="17.7329" x2="154.5294" y2="37.5879">
			<stop  offset="0" style="stop-color:#07D5FB"/>
			<stop  offset="0.2669" style="stop-color:#06D1FB"/>
			<stop  offset="0.5421" style="stop-color:#05C4FC"/>
			<stop  offset="0.8202" style="stop-color:#01B0FE"/>
			<stop  offset="0.9267" style="stop-color:#00A6FF"/>
		</linearGradient>
		<path class="st7" d="M157,43.9c0,0.13-0.04,0.25-0.12,0.34s-0.21,0.18-0.4,0.25c-0.19,0.07-0.44,0.11-0.75,0.15
			s-0.71,0.05-1.2,0.05s-0.88-0.02-1.2-0.05s-0.57-0.08-0.75-0.15c-0.19-0.07-0.32-0.15-0.4-0.25s-0.12-0.21-0.12-0.34V18.12
			c0-0.13,0.04-0.25,0.12-0.35c0.08-0.1,0.21-0.19,0.4-0.26c0.19-0.07,0.44-0.13,0.75-0.17s0.71-0.06,1.2-0.06s0.88,0.02,1.2,0.06
			s0.57,0.09,0.75,0.17c0.19,0.07,0.32,0.16,0.4,0.26c0.08,0.1,0.12,0.22,0.12,0.35V43.9z"/>
	</g>
</g>
</svg>
