<?xml version="1.0" encoding="utf-8"?>
<!-- Generator: Adobe Illustrator 24.2.3, SVG Export Plug-In . SVG Version: 6.00 Build 0)  -->
<svg version="1.1" id="Layer_1" xmlns="http://www.w3.org/2000/svg" xmlns:xlink="http://www.w3.org/1999/xlink" x="0px" y="0px"
	 viewBox="0 0 100 100" style="enable-background:new 0 0 100 100;" xml:space="preserve">
<style type="text/css">
	.st0{fill:url(#SVGID_1_);}
	.st1{fill:#106196;}
	.st2{fill:url(#SVGID_2_);}
	.st3{fill:url(#SVGID_3_);}
	.st4{fill:url(#SVGID_4_);}
	.st5{fill:url(#SVGID_5_);}
	.st6{fill:url(#SVGID_6_);}
	.st7{fill:url(#SVGID_7_);}
	.st8{fill:url(#SVGID_8_);}
	.st9{opacity:0.25;fill:url(#SVGID_9_);enable-background:new    ;}
	.st10{opacity:0.25;fill:url(#SVGID_10_);enable-background:new    ;}
	.st11{opacity:0.25;fill:url(#SVGID_11_);enable-background:new    ;}
	.st12{opacity:0.25;fill:url(#SVGID_12_);enable-background:new    ;}
	.st13{fill:#4D4D4D;}
	.st14{fill:url(#SVGID_13_);}
	.st15{fill:url(#SVGID_14_);}
	.st16{fill:url(#SVGID_15_);}
	.st17{fill:url(#SVGID_16_);}
	.st18{fill:url(#SVGID_17_);}
	.st19{fill:url(#SVGID_18_);}
	.st20{fill:url(#SVGID_19_);}
</style>
<g>
	<g>
		
			<linearGradient id="SVGID_1_" gradientUnits="userSpaceOnUse" x1="10.3678" y1="-123.3933" x2="88.4334" y2="-123.3933" gradientTransform="matrix(1 0 0 -1 0 -74)">
			<stop  offset="0" style="stop-color:#CC9401"/>
			<stop  offset="0.1904" style="stop-color:#CD9502"/>
			<stop  offset="0.2046" style="stop-color:#CA9603"/>
			<stop  offset="0.2162" style="stop-color:#C09807"/>
			<stop  offset="0.2269" style="stop-color:#AF9C0F"/>
			<stop  offset="0.2371" style="stop-color:#96A118"/>
			<stop  offset="0.2468" style="stop-color:#77A825"/>
			<stop  offset="0.2562" style="stop-color:#52B035"/>
			<stop  offset="0.2611" style="stop-color:#3BB53E"/>
			<stop  offset="0.4793" style="stop-color:#3BB93C"/>
			<stop  offset="0.4804" style="stop-color:#3FB43B"/>
			<stop  offset="0.5023" style="stop-color:#88622A"/>
			<stop  offset="0.5178" style="stop-color:#B62E1F"/>
			<stop  offset="0.5254" style="stop-color:#C81A1B"/>
			<stop  offset="0.7275" style="stop-color:#C81A1B"/>
			<stop  offset="0.7381" style="stop-color:#C9261A;stop-opacity:0.9975"/>
			<stop  offset="0.757" style="stop-color:#CB4417;stop-opacity:0.9931"/>
			<stop  offset="0.77" style="stop-color:#CD5D15;stop-opacity:0.99"/>
			<stop  offset="1" style="stop-color:#CC5D15"/>
		</linearGradient>
		<path class="st0" d="M86.02,30.66h-12.5c-1.33,0-2.41,1.08-2.41,2.41v11.98c0,0.34,0.07,0.67,0.2,0.97l-5.32,5.32
			c-0.07-0.01-0.15-0.01-0.22-0.01h-12.5c-0.06,0-0.12,0-0.18,0.01l-5.35-5.35c0.12-0.29,0.19-0.6,0.19-0.94V33.07
			c0-1.33-1.08-2.41-2.41-2.41h-12.5c-1.33,0-2.41,1.08-2.41,2.41v11.98c0,0.34,0.07,0.67,0.2,0.97l-5.32,5.32
			c-0.07-0.01-0.15-0.01-0.22-0.01h-12.5c-1.33,0-2.41,1.08-2.41,2.41v11.98c0,1.33,1.08,2.41,2.41,2.41h12.5
			c1.33,0,2.41-1.08,2.41-2.41V53.74c0-0.37-0.09-0.73-0.24-1.04l5.26-5.26c0.11,0.01,0.21,0.02,0.32,0.02h12.5
			c0.12,0,0.24-0.01,0.35-0.03l5.24,5.24c-0.16,0.32-0.25,0.68-0.25,1.07v11.98c0,1.33,1.08,2.41,2.41,2.41h12.5
			c1.33,0,2.41-1.08,2.41-2.41V53.74c0-0.37-0.09-0.73-0.24-1.04l5.26-5.26c0.11,0.01,0.21,0.02,0.32,0.02h12.5
			c1.33,0,2.41-1.08,2.41-2.41V33.07C88.43,31.74,87.35,30.66,86.02,30.66z"/>
		<g>
			<path class="st1" d="M41.88,51.59h-8.47c-0.4,0-0.73,0.32-0.73,0.73v8.47c0,0.4,0.32,0.73,0.73,0.73h8.47
				c0.4,0,0.73-0.32,0.73-0.73v-8.47C42.6,51.91,42.28,51.59,41.88,51.59z"/>
			<path class="st1" d="M33.85,66.05c-0.19,0-0.34,0.15-0.34,0.34v1.8c0,0.19,0.15,0.34,0.34,0.34h1.8c0.19,0,0.34-0.15,0.34-0.34
				v-1.8c0-0.19-0.15-0.34-0.34-0.34H33.85z"/>
			<path class="st1" d="M26.07,29.46v1.28c0,0.33,0.27,0.6,0.6,0.6h1.36c0.33,0,0.6-0.27,0.6-0.6v-1.28c0-0.33-0.27-0.6-0.6-0.6
				h-1.36C26.34,28.86,26.07,29.13,26.07,29.46z"/>
			<path class="st1" d="M38.36,13.25H28.34c-0.97,0-1.76,0.79-1.76,1.76v9.61c0,0.97,0.79,1.76,1.76,1.76h10.02
				c0.97,0,1.76-0.79,1.76-1.76v-9.61C40.12,14.04,39.33,13.25,38.36,13.25z"/>
			<path class="st1" d="M41.77,66.36v3.51c0,0.4,0.32,0.73,0.73,0.73h3.51c0.4,0,0.73-0.32,0.73-0.73v-3.51
				c0-0.4-0.32-0.73-0.73-0.73H42.5C42.1,65.64,41.77,65.96,41.77,66.36z"/>
			<path class="st1" d="M13.6,42.08h8.01c1.1,0,1.99-0.89,1.99-1.99v-8.42c0-1.1-0.89-1.99-1.99-1.99H13.6
				c-1.1,0-1.99,0.89-1.99,1.99v8.42C11.61,41.19,12.5,42.08,13.6,42.08z"/>
			<path class="st1" d="M22.33,27.2c0.33,0,0.6-0.27,0.6-0.6v-4.17c0-0.33-0.27-0.6-0.6-0.6h-4.34c-0.33,0-0.6,0.27-0.6,0.6v4.17
				c0,0.33,0.27,0.6,0.6,0.6H22.33z"/>
			<path class="st1" d="M44.67,79.62v1.8c0,0.19,0.15,0.34,0.34,0.34h1.8c0.19,0,0.34-0.15,0.34-0.34v-1.8
				c0-0.19-0.15-0.34-0.34-0.34h-1.8C44.82,79.27,44.67,79.43,44.67,79.62z"/>
			<path class="st1" d="M46.23,22.63h-2.29c-0.28,0-0.51,0.23-0.51,0.51v2.19c0,0.28,0.23,0.51,0.51,0.51h2.29
				c0.28,0,0.51-0.23,0.51-0.51v-2.19C46.73,22.86,46.51,22.63,46.23,22.63z"/>
			<path class="st1" d="M54.49,20.91c0.28,0,0.51-0.23,0.51-0.51v-1.39c0-0.28-0.23-0.51-0.51-0.51h-1.46
				c-0.28,0-0.51,0.23-0.51,0.51v1.39c0,0.28,0.23,0.51,0.51,0.51H54.49z"/>
			<path class="st1" d="M65.24,34.14c0.28,0,0.51-0.23,0.51-0.51v-1.39c0-0.28-0.23-0.51-0.51-0.51h-1.46
				c-0.28,0-0.51,0.23-0.51,0.51v1.39c0,0.28,0.23,0.51,0.51,0.51H65.24z"/>
			<path class="st1" d="M56.65,40.26v6.64c0,0.82,0.67,1.49,1.49,1.49h6.95c0.82,0,1.49-0.67,1.49-1.49v-6.64
				c0-0.82-0.67-1.49-1.49-1.49h-6.95C57.32,38.78,56.65,39.44,56.65,40.26z"/>
			<path class="st1" d="M52.52,77.31c0,0.4,0.32,0.73,0.73,0.73h1.86c0.4,0,0.73-0.32,0.73-0.73v-2.27c0-0.4-0.32-0.73-0.73-0.73
				h-1.86c-0.4,0-0.73,0.32-0.73,0.73L52.52,77.31L52.52,77.31z"/>
			<path class="st1" d="M8.49,48.95h3.76c0.33,0,0.6-0.27,0.6-0.6v-3.61c0-0.33-0.27-0.6-0.6-0.6H8.49c-0.33,0-0.6,0.27-0.6,0.6
				v3.61C7.89,48.68,8.16,48.95,8.49,48.95z"/>
			<path class="st1" d="M24.1,44.15c-0.33,0-0.6,0.27-0.6,0.6v1.69c0,0.33,0.27,0.6,0.6,0.6h1.78c0.33,0,0.6-0.27,0.6-0.6v-1.69
				c0-0.33-0.27-0.6-0.6-0.6H24.1z"/>
			<path class="st1" d="M50,3.41c-13.06,0-24.87,5.33-33.39,13.93c6.85-5.9,15.75-9.47,25.5-9.47c0.79,0,1.57,0.03,2.34,0.07H43.2
				c-0.33,0-0.6,0.27-0.6,0.6v4.01c0,0.33,0.27,0.6,0.6,0.6h4.17c0.33,0,0.6-0.27,0.6-0.6V8.55c0-0.09-0.02-0.17-0.05-0.24
				c1.71,0.26,3.38,0.62,5.01,1.09v1.92c0,0.33,0.27,0.6,0.6,0.6h2.11c0.33,0,0.6-0.27,0.6-0.6v-0.81c1.89,0.74,3.72,1.61,5.46,2.62
				h-2.55c-0.69,0-1.25,0.56-1.25,1.25v10.32c0,0.69,0.56,1.25,1.25,1.25h10.72c0.69,0,1.25-0.56,1.25-1.25v-3.95
				c2.1,2.32,3.92,4.91,5.43,7.69h10.44c1.74,0,3.15,1.41,3.15,3.15v14.78c0,1.74-1.41,3.15-3.15,3.15h-5.85
				c-0.19,3-0.72,5.9-1.55,8.68h-2.43c-0.82,0-1.49,0.67-1.49,1.49v7.39c-0.76,1.26-1.59,2.48-2.48,3.65v-1.44
				c0-0.19-0.15-0.34-0.34-0.34h-1.8c-0.19,0-0.34,0.15-0.34,0.34v1.8c0,0.19,0.15,0.34,0.34,0.34h1.59
				c-0.69,0.86-1.41,1.68-2.16,2.48h-9.87c-0.82,0-1.49,0.67-1.49,1.49v6.81c-5.15,2.49-10.92,3.89-17.02,3.89
				c-0.11,0-0.22,0-0.34,0c0-0.01,0-0.02,0-0.03V75.81c0-0.82-0.67-1.49-1.49-1.49H29.63c-0.82,0-1.49,0.67-1.49,1.49v7.72
				c-3.33-1.27-6.43-2.99-9.25-5.07h4.34c0.66,0,1.19-0.53,1.19-1.19v-4.65c0-0.66-0.53-1.19-1.19-1.19h-4.65
				c-0.66,0-1.19,0.53-1.19,1.19v4.65c0,0.01,0,0.02,0,0.03C9.03,70.46,3.54,60.24,3.04,48.71C3.02,49.28,3,49.85,3,50.42
				c0,6.25,1.22,12.22,3.44,17.67l0,0l0,0c0.44,1.07,0.91,2.13,1.42,3.16c0,0,0,0,0,0c0.51,1.03,1.06,2.04,1.64,3.02
				c0,0.01,0.01,0.01,0.01,0.02c0.58,0.98,1.2,1.94,1.84,2.87c0.01,0.01,0.01,0.02,0.02,0.03c0.64,0.93,1.32,1.83,2.03,2.71
				c0.01,0.01,0.02,0.03,0.03,0.04c0.7,0.87,1.44,1.72,2.2,2.53c0.02,0.02,0.04,0.04,0.05,0.06c0.76,0.81,1.54,1.59,2.36,2.35
				c0.03,0.03,0.05,0.05,0.08,0.07c0.81,0.75,1.64,1.46,2.5,2.15c0.03,0.03,0.07,0.05,0.1,0.08c0.43,0.34,0.86,0.68,1.31,1.01
				c0.01,0.01,0.03,0.02,0.04,0.03c0.42,0.31,0.86,0.62,1.29,0.92c0.04,0.03,0.08,0.06,0.12,0.09c0.44,0.31,0.9,0.6,1.35,0.89
				c0.04,0.02,0.08,0.05,0.11,0.07c0.43,0.27,0.86,0.53,1.3,0.79c0.05,0.03,0.1,0.06,0.15,0.09c0.46,0.27,0.93,0.53,1.4,0.78
				c0.06,0.03,0.12,0.06,0.18,0.09c0.43,0.23,0.87,0.45,1.31,0.67c0.05,0.03,0.11,0.05,0.17,0.08c0.47,0.23,0.95,0.45,1.43,0.67
				c0.08,0.04,0.16,0.07,0.23,0.1c0.44,0.19,0.88,0.38,1.33,0.56c0.06,0.03,0.12,0.05,0.18,0.07c0.48,0.19,0.98,0.38,1.47,0.55
				c0.09,0.03,0.19,0.07,0.28,0.1c0.45,0.16,0.9,0.31,1.36,0.46c0.06,0.02,0.12,0.04,0.18,0.06c0.5,0.16,1,0.3,1.5,0.44
				c0.11,0.03,0.22,0.06,0.32,0.09c0.46,0.12,0.93,0.24,1.39,0.35c0.05,0.01,0.11,0.03,0.17,0.04c0.51,0.12,1.02,0.23,1.54,0.33
				c0.12,0.02,0.24,0.05,0.36,0.07c0.48,0.09,0.97,0.17,1.45,0.25c0.05,0.01,0.09,0.01,0.14,0.02c0.52,0.08,1.05,0.15,1.57,0.21
				c0.13,0.01,0.26,0.03,0.38,0.04c0.51,0.06,1.02,0.11,1.53,0.15c0.03,0,0.05,0,0.08,0.01c0.54,0.04,1.07,0.07,1.61,0.09
				c0.13,0.01,0.27,0.01,0.4,0.01c0.54,0.02,1.09,0.03,1.64,0.03s1.09-0.01,1.64-0.03c0.13,0,0.27-0.01,0.4-0.01
				c0.54-0.02,1.07-0.05,1.61-0.09c0.03,0,0.05,0,0.08-0.01c0.51-0.04,1.02-0.09,1.53-0.15c0.13-0.01,0.26-0.03,0.38-0.04
				c0.53-0.06,1.05-0.13,1.57-0.21c0.05-0.01,0.09-0.01,0.14-0.02c0.48-0.08,0.97-0.16,1.45-0.25c0.12-0.02,0.24-0.04,0.36-0.07
				c0.52-0.1,1.03-0.21,1.54-0.33c0.05-0.01,0.11-0.03,0.17-0.04c0.47-0.11,0.93-0.23,1.4-0.35c0.11-0.03,0.22-0.06,0.32-0.09
				c0.5-0.14,1.01-0.29,1.5-0.44c0.06-0.02,0.12-0.04,0.18-0.06c0.46-0.15,0.9-0.3,1.35-0.46c0.09-0.03,0.19-0.07,0.28-0.1
				c0.49-0.18,0.98-0.36,1.47-0.55c0.06-0.03,0.12-0.05,0.18-0.07c0.44-0.18,0.89-0.36,1.33-0.56c0.08-0.03,0.16-0.07,0.23-0.1
				c0.48-0.21,0.96-0.44,1.43-0.67c0.05-0.03,0.11-0.05,0.17-0.08c0.44-0.21,0.87-0.44,1.31-0.67c0.06-0.03,0.12-0.06,0.18-0.09
				c0.47-0.25,0.93-0.51,1.4-0.78c0.05-0.03,0.1-0.06,0.15-0.09c0.44-0.26,0.87-0.52,1.3-0.79c0.04-0.02,0.08-0.05,0.11-0.07
				c0.46-0.29,0.91-0.59,1.35-0.89c0.04-0.03,0.08-0.06,0.13-0.09c0.43-0.3,0.86-0.6,1.29-0.92c0.01-0.01,0.03-0.02,0.04-0.03
				c0.44-0.33,0.88-0.66,1.3-1.01c0.03-0.03,0.07-0.05,0.1-0.08c0.86-0.69,1.69-1.41,2.5-2.15c0.03-0.02,0.05-0.05,0.08-0.07
				c0.81-0.75,1.6-1.54,2.36-2.35c0.02-0.02,0.04-0.04,0.05-0.06c0.76-0.82,1.5-1.66,2.2-2.53c0.01-0.01,0.02-0.03,0.03-0.04
				c0.71-0.88,1.38-1.78,2.03-2.71c0.01-0.01,0.01-0.02,0.02-0.03c0.65-0.93,1.26-1.89,1.84-2.87c0,0,0.01-0.01,0.01-0.01
				c0.58-0.98,1.13-1.99,1.64-3.02c0,0,0,0,0,0C95.25,64.98,97,57.91,97,50.43C97,24.46,75.95,3.41,50,3.41z"/>
			<path class="st1" d="M52.52,34.3c0,0.33,0.27,0.6,0.6,0.6h3.76c0.33,0,0.6-0.27,0.6-0.6v-3.61c0-0.33-0.27-0.6-0.6-0.6h-3.76
				c-0.33,0-0.6,0.27-0.6,0.6V34.3z"/>
			<path class="st1" d="M75.98,52.39h-2.29c-0.28,0-0.51,0.23-0.51,0.51v2.19c0,0.28,0.23,0.51,0.51,0.51h2.29
				c0.28,0,0.51-0.23,0.51-0.51V52.9C76.49,52.62,76.26,52.39,75.98,52.39z"/>
		</g>
		
			<linearGradient id="SVGID_2_" gradientUnits="userSpaceOnUse" x1="33.9505" y1="-165.5378" x2="70.5461" y2="-78.9361" gradientTransform="matrix(1 0 0 -1 0 -74)">
			<stop  offset="0" style="stop-color:#277DC6"/>
			<stop  offset="0.4761" style="stop-color:#3298D2"/>
			<stop  offset="1" style="stop-color:#3DB2DD"/>
		</linearGradient>
		<path class="st2" d="M42.6,51.49v8.47c0,0.4-0.32,0.73-0.73,0.73h-8.47c-0.4,0-0.73-0.32-0.73-0.73v-8.47
			c0-0.4,0.32-0.73,0.73-0.73h8.47C42.28,50.76,42.6,51.09,42.6,51.49z M33.85,65.22c-0.19,0-0.34,0.15-0.34,0.34v1.8
			c0,0.19,0.15,0.34,0.34,0.34h1.8c0.19,0,0.34-0.15,0.34-0.34v-1.8c0-0.19-0.15-0.34-0.34-0.34H33.85z M26.07,28.63v1.28
			c0,0.33,0.27,0.6,0.6,0.6h1.36c0.33,0,0.6-0.27,0.6-0.6v-1.28c0-0.33-0.27-0.6-0.6-0.6h-1.36C26.34,28.03,26.07,28.3,26.07,28.63z
			 M38.36,12.42H28.34c-0.97,0-1.76,0.79-1.76,1.76v9.61c0,0.97,0.79,1.76,1.76,1.76h10.02c0.97,0,1.76-0.79,1.76-1.76v-9.61
			C40.12,13.21,39.33,12.42,38.36,12.42z M41.77,65.54v3.51c0,0.4,0.32,0.73,0.73,0.73h3.51c0.4,0,0.73-0.32,0.73-0.73v-3.51
			c0-0.4-0.32-0.73-0.73-0.73H42.5C42.1,64.81,41.77,65.14,41.77,65.54z M13.6,41.25h8.01c1.1,0,1.99-0.89,1.99-1.99v-8.42
			c0-1.1-0.89-1.99-1.99-1.99H13.6c-1.1,0-1.99,0.89-1.99,1.99v8.42C11.61,40.37,12.5,41.25,13.6,41.25z M22.33,26.38
			c0.33,0,0.6-0.27,0.6-0.6v-4.17c0-0.33-0.27-0.6-0.6-0.6h-4.34c-0.33,0-0.6,0.27-0.6,0.6v4.17c0,0.33,0.27,0.6,0.6,0.6H22.33z
			 M44.67,78.79v1.8c0,0.19,0.15,0.34,0.34,0.34h1.8c0.19,0,0.34-0.15,0.34-0.34v-1.8c0-0.19-0.15-0.34-0.34-0.34h-1.8
			C44.82,78.45,44.67,78.6,44.67,78.79z M46.23,21.81h-2.29c-0.28,0-0.51,0.23-0.51,0.51v2.19c0,0.28,0.23,0.51,0.51,0.51h2.29
			c0.28,0,0.51-0.23,0.51-0.51v-2.19C46.73,22.04,46.51,21.81,46.23,21.81z M54.49,20.08c0.28,0,0.51-0.23,0.51-0.51v-1.39
			c0-0.28-0.23-0.51-0.51-0.51h-1.46c-0.28,0-0.51,0.23-0.51,0.51v1.39c0,0.28,0.23,0.51,0.51,0.51H54.49z M65.24,33.32
			c0.28,0,0.51-0.23,0.51-0.51v-1.39c0-0.28-0.23-0.51-0.51-0.51h-1.46c-0.28,0-0.51,0.23-0.51,0.51v1.39
			c0,0.28,0.23,0.51,0.51,0.51H65.24z M56.65,39.44v6.64c0,0.82,0.67,1.49,1.49,1.49h6.95c0.82,0,1.49-0.67,1.49-1.49v-6.64
			c0-0.82-0.67-1.49-1.49-1.49h-6.95C57.32,37.95,56.65,38.62,56.65,39.44z M52.52,76.48c0,0.4,0.32,0.73,0.73,0.73h1.86
			c0.4,0,0.73-0.32,0.73-0.73v-2.27c0-0.4-0.32-0.73-0.73-0.73h-1.86c-0.4,0-0.73,0.32-0.73,0.73L52.52,76.48L52.52,76.48z
			 M8.49,48.12h3.76c0.33,0,0.6-0.27,0.6-0.6v-3.61c0-0.33-0.27-0.6-0.6-0.6H8.49c-0.33,0-0.6,0.27-0.6,0.6v3.61
			C7.89,47.85,8.16,48.12,8.49,48.12z M24.1,43.32c-0.33,0-0.6,0.27-0.6,0.6v1.69c0,0.33,0.27,0.6,0.6,0.6h1.78
			c0.33,0,0.6-0.27,0.6-0.6v-1.69c0-0.33-0.27-0.6-0.6-0.6H24.1z M50,2.59c-13.06,0-24.87,5.33-33.39,13.93
			c6.85-5.9,15.75-9.47,25.5-9.47c0.79,0,1.57,0.03,2.34,0.07H43.2c-0.33,0-0.6,0.27-0.6,0.6v4.01c0,0.33,0.27,0.6,0.6,0.6h4.17
			c0.33,0,0.6-0.27,0.6-0.6V7.72c0-0.09-0.02-0.17-0.05-0.24c1.71,0.26,3.38,0.62,5.01,1.09v1.92c0,0.33,0.27,0.6,0.6,0.6h2.11
			c0.33,0,0.6-0.27,0.6-0.6V9.68c1.89,0.74,3.72,1.61,5.46,2.62h-2.55c-0.69,0-1.25,0.56-1.25,1.25v10.32
			c0,0.69,0.56,1.25,1.25,1.25h10.72c0.69,0,1.25-0.56,1.25-1.25v-3.95c2.1,2.32,3.92,4.91,5.43,7.69h10.44
			c1.74,0,3.15,1.41,3.15,3.15v14.78c0,1.74-1.41,3.15-3.15,3.15h-5.85c-0.19,3-0.72,5.9-1.55,8.68h-2.43
			c-0.82,0-1.49,0.67-1.49,1.49v7.39c-0.76,1.26-1.59,2.48-2.48,3.65v-1.44c0-0.19-0.15-0.34-0.34-0.34h-1.8
			c-0.19,0-0.34,0.15-0.34,0.34v1.8c0,0.19,0.15,0.34,0.34,0.34h1.59c-0.69,0.86-1.41,1.68-2.16,2.48h-9.87
			c-0.82,0-1.49,0.67-1.49,1.49v6.81c-5.15,2.49-10.92,3.89-17.02,3.89c-0.11,0-0.22,0-0.34,0c0-0.01,0-0.02,0-0.03V74.99
			c0-0.82-0.67-1.49-1.49-1.49H29.63c-0.82,0-1.49,0.67-1.49,1.49v7.72c-3.33-1.27-6.43-2.99-9.25-5.07h4.34
			c0.66,0,1.19-0.53,1.19-1.19v-4.65c0-0.66-0.53-1.19-1.19-1.19h-4.65c-0.66,0-1.19,0.53-1.19,1.19v4.65c0,0.01,0,0.02,0,0.03
			C9.03,69.63,3.54,59.4,3.04,47.87C3.02,48.44,3,49.01,3,49.59c0,6.25,1.22,12.22,3.44,17.67l0,0l0,0
			c0.44,1.07,0.91,2.13,1.42,3.16c0,0,0,0,0,0c0.51,1.03,1.06,2.04,1.64,3.02c0,0.01,0.01,0.01,0.01,0.02
			c0.58,0.98,1.2,1.94,1.84,2.87c0.01,0.01,0.01,0.02,0.02,0.03c0.64,0.93,1.32,1.83,2.03,2.71c0.01,0.01,0.02,0.03,0.03,0.04
			c0.7,0.87,1.44,1.72,2.2,2.53c0.02,0.02,0.04,0.04,0.05,0.06c0.76,0.81,1.54,1.59,2.36,2.35c0.03,0.03,0.05,0.05,0.08,0.07
			c0.81,0.75,1.64,1.46,2.5,2.15c0.03,0.03,0.07,0.05,0.1,0.08c0.43,0.34,0.86,0.68,1.31,1.01c0.01,0.01,0.03,0.02,0.04,0.03
			c0.42,0.31,0.86,0.62,1.29,0.92c0.04,0.03,0.08,0.06,0.12,0.09c0.44,0.31,0.9,0.6,1.35,0.89c0.04,0.02,0.08,0.05,0.11,0.07
			c0.43,0.27,0.86,0.53,1.3,0.79c0.05,0.03,0.1,0.06,0.15,0.09c0.46,0.27,0.93,0.53,1.4,0.78c0.06,0.03,0.12,0.06,0.18,0.09
			c0.43,0.23,0.87,0.45,1.31,0.67c0.05,0.03,0.11,0.05,0.17,0.08c0.47,0.23,0.95,0.45,1.43,0.67c0.08,0.04,0.16,0.07,0.23,0.1
			c0.44,0.19,0.88,0.38,1.33,0.56c0.06,0.03,0.12,0.05,0.18,0.07c0.48,0.19,0.98,0.38,1.47,0.55c0.09,0.03,0.19,0.07,0.28,0.1
			c0.45,0.16,0.9,0.31,1.36,0.46c0.06,0.02,0.12,0.04,0.18,0.06c0.5,0.16,1,0.3,1.5,0.44c0.11,0.03,0.22,0.06,0.32,0.09
			c0.46,0.12,0.93,0.24,1.39,0.35c0.05,0.01,0.11,0.03,0.17,0.04c0.51,0.12,1.02,0.23,1.54,0.33c0.12,0.02,0.24,0.05,0.36,0.07
			c0.48,0.09,0.97,0.17,1.45,0.25c0.05,0.01,0.09,0.01,0.14,0.02c0.52,0.08,1.05,0.15,1.57,0.21c0.13,0.01,0.26,0.03,0.38,0.04
			c0.51,0.06,1.02,0.11,1.53,0.15c0.03,0,0.05,0,0.08,0.01c0.54,0.04,1.07,0.07,1.61,0.09c0.13,0.01,0.27,0.01,0.4,0.01
			c0.54,0.02,1.09,0.03,1.64,0.03s1.09-0.01,1.64-0.03c0.13,0,0.27-0.01,0.4-0.01c0.54-0.02,1.07-0.05,1.61-0.09
			c0.03,0,0.05,0,0.08-0.01c0.51-0.04,1.02-0.09,1.53-0.15c0.13-0.01,0.26-0.03,0.38-0.04c0.53-0.06,1.05-0.13,1.57-0.21
			c0.05-0.01,0.09-0.01,0.14-0.02c0.48-0.08,0.97-0.16,1.45-0.25c0.12-0.02,0.24-0.04,0.36-0.07c0.52-0.1,1.03-0.21,1.54-0.33
			c0.05-0.01,0.11-0.03,0.17-0.04c0.47-0.11,0.93-0.23,1.4-0.35c0.11-0.03,0.22-0.06,0.32-0.09c0.5-0.14,1.01-0.29,1.5-0.44
			c0.06-0.02,0.12-0.04,0.18-0.06c0.46-0.15,0.9-0.3,1.35-0.46c0.09-0.03,0.19-0.07,0.28-0.1c0.49-0.18,0.98-0.36,1.47-0.55
			c0.06-0.03,0.12-0.05,0.18-0.07c0.44-0.18,0.89-0.36,1.33-0.56c0.08-0.03,0.16-0.07,0.23-0.1c0.48-0.21,0.96-0.44,1.43-0.67
			c0.05-0.03,0.11-0.05,0.17-0.08c0.44-0.21,0.87-0.44,1.31-0.67c0.06-0.03,0.12-0.06,0.18-0.09c0.47-0.25,0.93-0.51,1.4-0.78
			c0.05-0.03,0.1-0.06,0.15-0.09c0.44-0.26,0.87-0.52,1.3-0.79c0.04-0.02,0.08-0.05,0.11-0.07c0.46-0.29,0.91-0.59,1.35-0.89
			c0.04-0.03,0.08-0.06,0.13-0.09c0.43-0.3,0.86-0.6,1.29-0.92c0.01-0.01,0.03-0.02,0.04-0.03c0.44-0.33,0.88-0.66,1.3-1.01
			c0.03-0.03,0.07-0.05,0.1-0.08c0.86-0.69,1.69-1.41,2.5-2.15c0.03-0.02,0.05-0.05,0.08-0.07c0.81-0.75,1.6-1.54,2.36-2.35
			c0.02-0.02,0.04-0.04,0.05-0.06c0.76-0.82,1.5-1.66,2.2-2.53c0.01-0.01,0.02-0.03,0.03-0.04c0.71-0.88,1.38-1.78,2.03-2.71
			c0.01-0.01,0.01-0.02,0.02-0.03c0.65-0.93,1.26-1.89,1.84-2.87c0,0,0.01-0.01,0.01-0.01c0.58-0.98,1.13-1.99,1.64-3.02
			c0,0,0,0,0,0C95.25,64.15,97,57.07,97,49.59C97,23.63,75.95,2.59,50,2.59z M52.52,33.47c0,0.33,0.27,0.6,0.6,0.6h3.76
			c0.33,0,0.6-0.27,0.6-0.6v-3.61c0-0.33-0.27-0.6-0.6-0.6h-3.76c-0.33,0-0.6,0.27-0.6,0.6V33.47z M75.98,51.97h-2.29
			c-0.28,0-0.51,0.23-0.51,0.51v2.19c0,0.28,0.23,0.51,0.51,0.51h2.29c0.28,0,0.51-0.23,0.51-0.51v-2.19
			C76.49,52.2,76.26,51.97,75.98,51.97z"/>
		
			<linearGradient id="SVGID_3_" gradientUnits="userSpaceOnUse" x1="36.823" y1="-165.3372" x2="57.5259" y2="-104.6503" gradientTransform="matrix(1 0 0 -1 0 -74)">
			<stop  offset="0" style="stop-color:#184FB4"/>
			<stop  offset="0.2136" style="stop-color:#1B58B7"/>
			<stop  offset="0.5575" style="stop-color:#226FC1"/>
			<stop  offset="0.9867" style="stop-color:#2F96D0"/>
			<stop  offset="1" style="stop-color:#2F97D1"/>
		</linearGradient>
		<path class="st3" d="M35.65,65.22c0.19,0,0.34,0.15,0.34,0.34v1.8c0,0.19-0.15,0.34-0.34,0.34h-1.8c-0.19,0-0.34-0.15-0.34-0.34
			v-1.8c0-0.19,0.15-0.34,0.34-0.34H35.65z M45.01,80.93h1.8c0.19,0,0.34-0.15,0.34-0.34v-1.8c0-0.19-0.15-0.34-0.34-0.34h-1.8
			c-0.19,0-0.34,0.15-0.34,0.34v1.8C44.67,80.78,44.82,80.93,45.01,80.93z M46.73,69.05v-3.51c0-0.4-0.32-0.73-0.73-0.73H42.5
			c-0.4,0-0.73,0.32-0.73,0.73v3.51c0,0.4,0.32,0.73,0.73,0.73h3.51C46.41,69.77,46.73,69.45,46.73,69.05z M75.66,60.06v6.19
			c-0.76,1.26-1.59,2.48-2.48,3.65v-1.44c0-0.19-0.15-0.34-0.34-0.34h-1.8c-0.19,0-0.34,0.15-0.34,0.34v1.8
			c0,0.19,0.15,0.34,0.34,0.34h1.59c-0.69,0.86-1.41,1.68-2.16,2.48h-9.86c-0.82,0-1.49,0.67-1.49,1.49v6.81
			c-5.15,2.49-10.92,3.89-17.02,3.89c-0.11,0-0.22,0-0.34,0c0-0.01,0-0.02,0-0.03V74.97c0-0.82-0.67-1.49-1.49-1.49H29.63
			c-0.82,0-1.49,0.67-1.49,1.49v7.72c-3.33-1.27-6.43-2.99-9.25-5.07h4.34c0.66,0,1.19-0.53,1.19-1.19v-4.64
			c0-0.66-0.53-1.19-1.19-1.19h-4.65c-0.66,0-1.19,0.53-1.19,1.19v4.65c0,0.01,0,0.02,0,0.03C9.03,69.63,3.54,59.4,3.04,47.87
			C3.02,48.44,3,49.01,3,49.59c0,6.25,1.22,12.22,3.44,17.67l0,0l0,0c0.44,1.07,0.91,2.13,1.42,3.16c0,0,0,0,0,0
			c0.51,1.03,1.06,2.04,1.64,3.02c0,0.01,0.01,0.01,0.01,0.02c0.58,0.98,1.2,1.94,1.84,2.87c0.01,0.01,0.01,0.02,0.02,0.03
			c0.64,0.93,1.32,1.83,2.03,2.71c0.01,0.01,0.02,0.03,0.03,0.04c0.7,0.87,1.44,1.72,2.2,2.53c0.02,0.02,0.04,0.04,0.05,0.06
			c0.76,0.81,1.54,1.59,2.36,2.35c0.03,0.03,0.05,0.05,0.08,0.07c0.81,0.75,1.64,1.46,2.5,2.15c0.03,0.03,0.07,0.05,0.1,0.08
			c0.43,0.34,0.86,0.68,1.31,1.01c0.01,0.01,0.03,0.02,0.04,0.03c0.42,0.31,0.86,0.62,1.29,0.92c0.04,0.03,0.08,0.06,0.12,0.09
			c0.44,0.31,0.9,0.6,1.35,0.89c0.04,0.02,0.08,0.05,0.11,0.07c0.43,0.27,0.86,0.53,1.3,0.79c0.05,0.03,0.1,0.06,0.15,0.09
			c0.46,0.27,0.93,0.53,1.4,0.78c0.06,0.03,0.12,0.06,0.18,0.09c0.43,0.23,0.87,0.45,1.31,0.67c0.05,0.03,0.11,0.05,0.17,0.08
			c0.47,0.23,0.95,0.45,1.43,0.67c0.08,0.04,0.16,0.07,0.23,0.1c0.44,0.19,0.88,0.38,1.33,0.56c0.06,0.03,0.12,0.05,0.18,0.07
			c0.48,0.19,0.98,0.38,1.47,0.55c0.09,0.03,0.19,0.07,0.28,0.1c0.45,0.16,0.9,0.31,1.36,0.46c0.06,0.02,0.12,0.04,0.18,0.06
			c0.5,0.16,1,0.3,1.5,0.44c0.11,0.03,0.22,0.06,0.32,0.09c0.46,0.12,0.93,0.24,1.39,0.35c0.05,0.01,0.11,0.03,0.17,0.04
			c0.51,0.12,1.02,0.23,1.54,0.33c0.12,0.02,0.24,0.05,0.36,0.07c0.48,0.09,0.97,0.17,1.45,0.25c0.05,0.01,0.09,0.01,0.14,0.02
			c0.52,0.08,1.05,0.15,1.57,0.21c0.13,0.01,0.26,0.03,0.38,0.04c0.51,0.06,1.02,0.11,1.53,0.15c0.03,0,0.05,0,0.08,0.01
			c0.54,0.04,1.07,0.07,1.61,0.09c0.13,0.01,0.27,0.01,0.4,0.01c0.54,0.02,1.09,0.03,1.64,0.03s1.09-0.01,1.64-0.03
			c0.13,0,0.27-0.01,0.4-0.01c0.54-0.02,1.07-0.05,1.61-0.09c0.03,0,0.05,0,0.08-0.01c0.51-0.04,1.02-0.09,1.53-0.15
			c0.13-0.01,0.26-0.03,0.38-0.04c0.53-0.06,1.05-0.13,1.57-0.21c0.05-0.01,0.09-0.01,0.14-0.02c0.48-0.08,0.97-0.16,1.45-0.25
			c0.12-0.02,0.24-0.04,0.36-0.07c0.52-0.1,1.03-0.21,1.54-0.33c0.05-0.01,0.11-0.03,0.17-0.04c0.47-0.11,0.93-0.23,1.4-0.35
			c0.11-0.03,0.22-0.06,0.32-0.09c0.5-0.14,1.01-0.29,1.5-0.44c0.06-0.02,0.12-0.04,0.18-0.06c0.46-0.15,0.9-0.3,1.35-0.46
			c0.09-0.03,0.19-0.07,0.28-0.1c0.49-0.18,0.98-0.36,1.47-0.55c0.06-0.03,0.12-0.05,0.18-0.07c0.44-0.18,0.89-0.36,1.33-0.56
			c0.08-0.03,0.16-0.07,0.23-0.1c0.48-0.21,0.96-0.44,1.43-0.67c0.05-0.03,0.11-0.05,0.17-0.08c0.44-0.21,0.87-0.44,1.31-0.67
			c0.06-0.03,0.12-0.06,0.18-0.09c0.47-0.25,0.93-0.51,1.4-0.78c0.05-0.03,0.1-0.06,0.15-0.09c0.44-0.26,0.87-0.52,1.3-0.79
			c0.04-0.02,0.08-0.05,0.11-0.07c0.46-0.29,0.91-0.59,1.35-0.89c0.04-0.03,0.08-0.06,0.13-0.09c0.43-0.3,0.86-0.6,1.29-0.92
			c0.01-0.01,0.03-0.02,0.04-0.03c0.44-0.33,0.88-0.66,1.3-1.01c0.03-0.03,0.07-0.05,0.1-0.08c0.86-0.69,1.69-1.41,2.5-2.15
			c0.03-0.02,0.05-0.05,0.08-0.07c0.81-0.75,1.6-1.54,2.36-2.35c0.02-0.02,0.04-0.04,0.05-0.06c0.76-0.82,1.5-1.66,2.2-2.53
			c0.01-0.01,0.02-0.03,0.03-0.04c0.71-0.88,1.38-1.78,2.03-2.71c0.01-0.01,0.01-0.02,0.02-0.03c0.65-0.93,1.26-1.89,1.84-2.87
			c0,0,0.01-0.01,0.01-0.01c0.58-0.98,1.13-1.99,1.64-3.02c0,0,0,0,0,0C95.25,64.15,97,57.07,97,49.59c0-0.91-0.03-1.82-0.08-2.72
			C90.9,52.65,83.67,57.18,75.66,60.06z M53.24,77.21h1.86c0.4,0,0.73-0.32,0.73-0.73v-2.27c0-0.4-0.32-0.73-0.73-0.73h-1.86
			c-0.4,0-0.73,0.32-0.73,0.73v2.27C52.52,76.88,52.84,77.21,53.24,77.21z"/>
		
			<linearGradient id="SVGID_4_" gradientUnits="userSpaceOnUse" x1="10.3678" y1="-122.5662" x2="88.4334" y2="-122.5662" gradientTransform="matrix(1 0 0 -1 0 -74)">
			<stop  offset="0" style="stop-color:#FEBD01"/>
			<stop  offset="0.1645" style="stop-color:#FEBD01"/>
			<stop  offset="0.1904" style="stop-color:#FEBD01"/>
			<stop  offset="0.2034" style="stop-color:#FBBE02"/>
			<stop  offset="0.214" style="stop-color:#F1C007"/>
			<stop  offset="0.2238" style="stop-color:#E0C40E"/>
			<stop  offset="0.2331" style="stop-color:#C7C917"/>
			<stop  offset="0.2421" style="stop-color:#A8D024"/>
			<stop  offset="0.2508" style="stop-color:#82D934"/>
			<stop  offset="0.2591" style="stop-color:#56E246"/>
			<stop  offset="0.2611" style="stop-color:#4AE54B"/>
			<stop  offset="0.4793" style="stop-color:#4AE54B"/>
			<stop  offset="0.4879" style="stop-color:#6FBB42"/>
			<stop  offset="0.5062" style="stop-color:#B96931"/>
			<stop  offset="0.5191" style="stop-color:#E73526"/>
			<stop  offset="0.5254" style="stop-color:#F92122"/>
			<stop  offset="0.7275" style="stop-color:#F92122"/>
			<stop  offset="0.7355" style="stop-color:#FA2D1F"/>
			<stop  offset="0.7496" style="stop-color:#FB4B16"/>
			<stop  offset="0.7683" style="stop-color:#FE7D08"/>
			<stop  offset="0.7779" style="stop-color:#FF9900"/>
			<stop  offset="1" style="stop-color:#FE9900"/>
		</linearGradient>
		<path class="st4" d="M86.02,29.84h-12.5c-1.33,0-2.41,1.08-2.41,2.41v11.98c0,0.34,0.07,0.67,0.2,0.97l-5.32,5.32
			c-0.07-0.01-0.15-0.01-0.22-0.01h-12.5c-0.06,0-0.12,0-0.18,0.01l-5.35-5.35c0.12-0.29,0.19-0.6,0.19-0.94V32.25
			c0-1.33-1.08-2.41-2.41-2.41h-12.5c-1.33,0-2.41,1.08-2.41,2.41v11.98c0,0.34,0.07,0.67,0.2,0.97l-5.32,5.32
			c-0.07-0.01-0.15-0.01-0.22-0.01h-12.5c-1.33,0-2.41,1.08-2.41,2.41v11.98c0,1.33,1.08,2.41,2.41,2.41h12.5
			c1.33,0,2.41-1.08,2.41-2.41V52.91c0-0.37-0.09-0.73-0.24-1.04l5.26-5.26c0.11,0.01,0.21,0.02,0.32,0.02h12.5
			c0.12,0,0.24-0.01,0.35-0.03l5.24,5.24c-0.16,0.32-0.25,0.68-0.25,1.07v11.98c0,1.33,1.08,2.41,2.41,2.41h12.5
			c1.33,0,2.41-1.08,2.41-2.41V52.91c0-0.37-0.09-0.73-0.24-1.04l5.26-5.26c0.11,0.01,0.21,0.02,0.32,0.02h12.5
			c1.33,0,2.41-1.08,2.41-2.41V32.25C88.43,30.91,87.35,29.84,86.02,29.84z"/>
		
			<linearGradient id="SVGID_5_" gradientUnits="userSpaceOnUse" x1="25.5189" y1="-126.1426" x2="32.8248" y2="-118.8367" gradientTransform="matrix(1 0 0 -1 0 -74)">
			<stop  offset="0.2234" style="stop-color:#FEBD01"/>
			<stop  offset="0.6441" style="stop-color:#84DA3A"/>
			<stop  offset="0.8346" style="stop-color:#52E652"/>
		</linearGradient>
		<polygon class="st5" points="32,44.01 33.65,45.66 26.35,52.97 24.69,51.32 		"/>
		
			<linearGradient id="SVGID_6_" gradientUnits="userSpaceOnUse" x1="65.6047" y1="-126.5544" x2="72.9106" y2="-119.2485" gradientTransform="matrix(1 0 0 -1 0 -74)">
			<stop  offset="0.269" style="stop-color:#F92122"/>
			<stop  offset="0.5991" style="stop-color:#FC7B1C"/>
			<stop  offset="0.7665" style="stop-color:#FEA41A"/>
		</linearGradient>
		<polygon class="st6" points="72.08,44.42 73.73,46.08 66.43,53.38 64.78,51.73 		"/>
		
			<linearGradient id="SVGID_7_" gradientUnits="userSpaceOnUse" x1="45.7677" y1="-118.8367" x2="53.0736" y2="-126.1426" gradientTransform="matrix(1 0 0 -1 0 -74)">
			<stop  offset="0.1697" style="stop-color:#4AE54B"/>
			<stop  offset="0.2702" style="stop-color:#60CC46"/>
			<stop  offset="0.4845" style="stop-color:#9A8B38"/>
			<stop  offset="0.7934" style="stop-color:#F62523"/>
			<stop  offset="0.8037" style="stop-color:#F92122"/>
		</linearGradient>
		<polygon class="st7" points="44.94,45.66 46.59,44.01 53.9,51.32 52.25,52.97 		"/>
		
			<linearGradient id="SVGID_8_" gradientUnits="userSpaceOnUse" x1="50.234" y1="-170.5943" x2="50.6192" y2="-148.524" gradientTransform="matrix(1 0 0 -1 0 -74)">
			<stop  offset="0" style="stop-color:#1544A0"/>
			<stop  offset="1" style="stop-color:#1745A3"/>
		</linearGradient>
		<path class="st8" d="M88.93,75.77c-0.01,0.01-0.03,0.03-0.04,0.04c-0.75,0.87-1.54,1.72-2.35,2.53c-0.02,0.02-0.04,0.04-0.06,0.06
			c-0.81,0.81-1.65,1.59-2.52,2.35c-0.03,0.02-0.05,0.05-0.08,0.07c-0.86,0.75-1.76,1.46-2.67,2.15c-0.04,0.03-0.07,0.05-0.11,0.08
			c-0.46,0.34-0.93,0.68-1.4,1.01c-0.01,0.01-0.03,0.02-0.05,0.03c-0.45,0.31-0.91,0.62-1.37,0.92c-0.04,0.03-0.09,0.06-0.13,0.09
			c-0.48,0.31-0.96,0.6-1.45,0.89c-0.04,0.02-0.08,0.05-0.12,0.07c-0.46,0.27-0.92,0.53-1.38,0.79c-0.05,0.03-0.11,0.06-0.16,0.09
			c-0.49,0.27-0.99,0.53-1.49,0.78c-0.06,0.03-0.13,0.06-0.19,0.09c-0.46,0.23-0.93,0.45-1.4,0.67c-0.06,0.03-0.12,0.05-0.18,0.08
			c-0.51,0.23-1.02,0.45-1.53,0.67c-0.08,0.04-0.17,0.07-0.25,0.1c-0.47,0.19-0.94,0.38-1.42,0.56c-0.07,0.03-0.13,0.05-0.19,0.07
			c-0.52,0.19-1.04,0.38-1.57,0.55c-0.1,0.03-0.2,0.07-0.31,0.1c-0.48,0.16-0.96,0.31-1.44,0.46c-0.07,0.02-0.13,0.04-0.19,0.06
			c-0.53,0.16-1.07,0.3-1.61,0.44c-0.12,0.03-0.23,0.06-0.35,0.09c-0.5,0.12-0.99,0.24-1.49,0.35c-0.06,0.01-0.12,0.03-0.18,0.04
			c-0.54,0.12-1.09,0.23-1.64,0.33c-0.13,0.02-0.26,0.05-0.38,0.07c-0.51,0.09-1.03,0.17-1.55,0.25c-0.05,0.01-0.1,0.01-0.15,0.02
			c-0.56,0.08-1.12,0.15-1.68,0.21c-0.13,0.01-0.27,0.03-0.41,0.04c-0.54,0.06-1.09,0.11-1.64,0.15c-0.03,0-0.06,0-0.09,0.01
			c-0.57,0.04-1.14,0.07-1.72,0.09c-0.14,0.01-0.28,0.01-0.43,0.01c-0.58,0.02-1.16,0.03-1.75,0.03c-0.59,0-1.17-0.01-1.75-0.03
			c-0.14,0-0.28-0.01-0.43-0.01c-0.58-0.02-1.15-0.05-1.72-0.09c-0.03,0-0.06,0-0.09-0.01c-0.55-0.04-1.09-0.09-1.64-0.15
			c-0.13-0.01-0.27-0.03-0.41-0.04c-0.56-0.06-1.13-0.13-1.68-0.21c-0.05-0.01-0.1-0.01-0.15-0.02c-0.52-0.08-1.03-0.16-1.55-0.25
			c-0.13-0.02-0.26-0.04-0.38-0.07c-0.55-0.1-1.1-0.21-1.64-0.33c-0.06-0.01-0.12-0.03-0.18-0.04c-0.5-0.11-0.99-0.23-1.49-0.35
			c-0.12-0.03-0.23-0.06-0.35-0.09c-0.54-0.14-1.07-0.29-1.61-0.44c-0.07-0.02-0.13-0.04-0.19-0.06c-0.48-0.15-0.97-0.3-1.45-0.46
			c-0.1-0.03-0.2-0.07-0.3-0.1c-0.53-0.18-1.05-0.36-1.57-0.55c-0.07-0.03-0.13-0.05-0.19-0.07c-0.48-0.18-0.95-0.36-1.42-0.56
			c-0.08-0.03-0.17-0.07-0.25-0.1c-0.51-0.21-1.02-0.44-1.53-0.67c-0.06-0.03-0.12-0.05-0.18-0.08c-0.47-0.21-0.94-0.44-1.4-0.67
			c-0.06-0.03-0.13-0.06-0.19-0.09c-0.5-0.25-1-0.51-1.49-0.78c-0.05-0.03-0.11-0.06-0.16-0.09c-0.47-0.26-0.93-0.52-1.38-0.79
			c-0.04-0.02-0.08-0.05-0.12-0.07c-0.49-0.29-0.97-0.59-1.45-0.89c-0.04-0.03-0.09-0.06-0.13-0.09c-0.47-0.3-0.93-0.6-1.38-0.92
			c-0.01-0.01-0.03-0.02-0.04-0.03c-0.47-0.33-0.94-0.66-1.4-1.01c-0.04-0.03-0.07-0.05-0.11-0.08c-0.92-0.69-1.81-1.41-2.67-2.15
			c-0.03-0.03-0.05-0.05-0.08-0.07c-0.87-0.75-1.71-1.54-2.52-2.35c-0.02-0.02-0.04-0.04-0.06-0.06c-0.46-0.46-0.9-0.92-1.33-1.4
			c8.53,11.89,22.46,19.64,38.21,19.64c16.51,0,31.02-8.51,39.4-21.38C89.24,75.39,89.09,75.58,88.93,75.77z"/>
		
			<linearGradient id="SVGID_9_" gradientUnits="userSpaceOnUse" x1="79.7738" y1="-117.1569" x2="79.7738" y2="-103.8314" gradientTransform="matrix(1 0 0 -1 0 -74)">
			<stop  offset="0" style="stop-color:#FFFFFF"/>
			<stop  offset="1" style="stop-color:#FFFFFF;stop-opacity:0"/>
		</linearGradient>
		<path class="st9" d="M88.43,37.75v-5.51c0-1.33-1.08-2.41-2.41-2.41h-12.5c-1.33,0-2.41,1.08-2.41,2.41v10.92
			C74.57,42.68,80.25,41.6,88.43,37.75z"/>
		
			<linearGradient id="SVGID_10_" gradientUnits="userSpaceOnUse" x1="59.525" y1="-137.8211" x2="59.525" y2="-124.4956" gradientTransform="matrix(1 0 0 -1 0 -74)">
			<stop  offset="0" style="stop-color:#FFFFFF"/>
			<stop  offset="1" style="stop-color:#FFFFFF;stop-opacity:0"/>
		</linearGradient>
		<path class="st10" d="M68.18,58.41V52.9c0-1.33-1.08-2.41-2.41-2.41h-12.5c-1.33,0-2.41,1.08-2.41,2.41v10.92
			C54.32,63.34,60,62.26,68.18,58.41z"/>
		
			<linearGradient id="SVGID_11_" gradientUnits="userSpaceOnUse" x1="39.2762" y1="-117.1569" x2="39.2762" y2="-103.8314" gradientTransform="matrix(1 0 0 -1 0 -74)">
			<stop  offset="0" style="stop-color:#FFFFFF"/>
			<stop  offset="1" style="stop-color:#FFFFFF;stop-opacity:0"/>
		</linearGradient>
		<path class="st11" d="M47.94,37.75v-5.51c0-1.33-1.08-2.41-2.41-2.41h-12.5c-1.33,0-2.41,1.08-2.41,2.41v10.92
			C34.07,42.68,39.76,41.6,47.94,37.75z"/>
		
			<linearGradient id="SVGID_12_" gradientUnits="userSpaceOnUse" x1="19.0274" y1="-137.8211" x2="19.0274" y2="-124.4956" gradientTransform="matrix(1 0 0 -1 0 -74)">
			<stop  offset="0" style="stop-color:#FFFFFF"/>
			<stop  offset="1" style="stop-color:#FFFFFF;stop-opacity:0"/>
		</linearGradient>
		<path class="st12" d="M27.69,58.41V52.9c0-1.33-1.08-2.41-2.41-2.41h-12.5c-1.33,0-2.41,1.08-2.41,2.41v10.92
			C13.82,63.34,19.5,62.26,27.69,58.41z"/>
	</g>
</g>
</svg>
